<svg xmlns="http://www.w3.org/2000/svg" viewBox="0 0 3256 4872"><g id="a67e3045-8a1b-4182-8f45-913a15119d73" data-name="Layer 2"><g id="bd2bc40a-c585-41a9-820c-7c410f81a304" data-name="Layer 1"><polygon points="407 101.795 305.205 0 203.382 0 407 203.618 407 101.795" style="fill:none"/><polygon points="407 305.442 101.558 0 1.149 0 407 405.851 407 305.442" style="fill:none"/><polygon points="305.326 406 1 101.674 1 204.205 202.795 406 305.326 406" style="fill:none"/><polygon points="1 306.028 1 406 100.972 406 1 306.028" style="fill:none"/><polygon points="202.795 406 1 204.205 1 306.028 100.972 406 202.795 406" style="fill:#999"/><polygon points="407 406 407 405.851 1.149 0 1 0 1 101.674 305.326 406 407 406" style="fill:#999"/><polygon points="407 203.618 203.382 0 101.558 0 407 305.442 407 203.618" style="fill:#999"/><polygon points="407 0 305.205 0 407 101.795 407 0" style="fill:#999"/><polygon points="813 507.795 711.205 406 609.382 406 813 609.618 813 507.795" style="fill:none"/><polygon points="813 711.442 507.558 406 407.149 406 813 811.851 813 711.442" style="fill:none"/><polygon points="711.326 812 407 507.674 407 610.205 608.795 812 711.326 812" style="fill:none"/><polygon points="407 712.028 407 812 506.972 812 407 712.028" style="fill:none"/><polygon points="608.795 812 407 610.205 407 712.028 506.972 812 608.795 812" style="fill:#999"/><polygon points="813 812 813 811.851 407.149 406 407 406 407 507.674 711.326 812 813 812" style="fill:#999"/><polygon points="813 609.618 609.382 406 507.558 406 813 711.442 813 609.618" style="fill:#999"/><polygon points="813 406 711.205 406 813 507.795 813 406" style="fill:#999"/><polygon points="813 304.205 711.205 406 609.382 406 813 202.382 813 304.205" style="fill:none"/><polygon points="813 100.558 507.558 406 407.149 406 813 0.149 813 100.558" style="fill:none"/><polygon points="711.326 0 407 304.326 407 201.795 608.795 0 711.326 0" style="fill:none"/><polygon points="407 99.972 407 0 506.972 0 407 99.972" style="fill:none"/><polygon points="608.795 0 407 201.795 407 99.972 506.972 0 608.795 0" style="fill:#fd5b78"/><polygon points="813 0 813 0.149 407.149 406 407 406 407 304.326 711.326 0 813 0" style="fill:#fd5b78"/><polygon points="813 202.382 609.382 406 507.558 406 813 100.558 813 202.382" style="fill:#fd5b78"/><polygon points="813 406 711.205 406 813 304.205 813 406" style="fill:#fd5b78"/><polygon points="406 710.205 304.205 812 202.382 812 406 608.382 406 710.205" style="fill:none"/><polygon points="406 506.558 100.558 812 0.149 812 406 406.149 406 506.558" style="fill:none"/><polygon points="304.326 406 0 710.326 0 607.795 201.795 406 304.326 406" style="fill:none"/><polygon points="0 505.972 0 406 99.972 406 0 505.972" style="fill:none"/><polygon points="201.795 406 0 607.795 0 505.972 99.972 406 201.795 406" style="fill:#fd5b78"/><polygon points="406 406 406 406.149 0.149 812 0 812 0 710.326 304.326 406 406 406" style="fill:#fd5b78"/><polygon points="406 608.382 202.382 812 100.558 812 406 506.558 406 608.382" style="fill:#fd5b78"/><polygon points="406 812 304.205 812 406 710.205 406 812" style="fill:#fd5b78"/><polygon points="1222 101.795 1120.205 0 1018.382 0 1222 203.618 1222 101.795" style="fill:none"/><polygon points="1222 305.442 916.558 0 816.149 0 1222 405.851 1222 305.442" style="fill:none"/><polygon points="1120.326 406 816 101.674 816 204.205 1017.795 406 1120.326 406" style="fill:none"/><polygon points="816 306.028 816 406 915.972 406 816 306.028" style="fill:none"/><polygon points="1017.795 406 816 204.205 816 306.028 915.972 406 1017.795 406" style="fill:#999"/><polygon points="1222 406 1222 405.851 816.149 0 816 0 816 101.674 1120.326 406 1222 406" style="fill:#999"/><polygon points="1222 203.618 1018.382 0 916.558 0 1222 305.442 1222 203.618" style="fill:#999"/><polygon points="1222 0 1120.205 0 1222 101.795 1222 0" style="fill:#999"/><polygon points="1628 507.795 1526.205 406 1424.382 406 1628 609.618 1628 507.795" style="fill:none"/><polygon points="1628 711.442 1322.558 406 1222.149 406 1628 811.851 1628 711.442" style="fill:none"/><polygon points="1526.326 812 1222 507.674 1222 610.205 1423.795 812 1526.326 812" style="fill:none"/><polygon points="1222 712.028 1222 812 1321.972 812 1222 712.028" style="fill:none"/><polygon points="1423.795 812 1222 610.205 1222 712.028 1321.972 812 1423.795 812" style="fill:#999"/><polygon points="1628 812 1628 811.851 1222.149 406 1222 406 1222 507.674 1526.326 812 1628 812" style="fill:#999"/><polygon points="1628 609.618 1424.382 406 1322.558 406 1628 711.442 1628 609.618" style="fill:#999"/><polygon points="1628 406 1526.205 406 1628 507.795 1628 406" style="fill:#999"/><polygon points="1628 304.205 1526.205 406 1424.382 406 1628 202.382 1628 304.205" style="fill:none"/><polygon points="1628 100.558 1322.558 406 1222.149 406 1628 0.149 1628 100.558" style="fill:none"/><polygon points="1526.326 0 1222 304.326 1222 201.795 1423.795 0 1526.326 0" style="fill:none"/><polygon points="1222 99.972 1222 0 1321.972 0 1222 99.972" style="fill:none"/><polygon points="1423.795 0 1222 201.795 1222 99.972 1321.972 0 1423.795 0" style="fill:#fd5b78"/><polygon points="1628 0 1628 0.149 1222.149 406 1222 406 1222 304.326 1526.326 0 1628 0" style="fill:#fd5b78"/><polygon points="1628 202.382 1424.382 406 1322.558 406 1628 100.558 1628 202.382" style="fill:#fd5b78"/><polygon points="1628 406 1526.205 406 1628 304.205 1628 406" style="fill:#fd5b78"/><polygon points="1221 710.205 1119.205 812 1017.382 812 1221 608.382 1221 710.205" style="fill:none"/><polygon points="1221 506.558 915.558 812 815.149 812 1221 406.149 1221 506.558" style="fill:none"/><polygon points="1119.326 406 815 710.326 815 607.795 1016.795 406 1119.326 406" style="fill:none"/><polygon points="815 505.972 815 406 914.972 406 815 505.972" style="fill:#999"/><polygon points="1016.795 406 815 607.795 815 505.972 914.972 406 1016.795 406" style="fill:#fd5b78"/><polygon points="1221 406 1221 406.149 815.149 812 815 812 815 710.326 1119.326 406 1221 406" style="fill:#fd5b78"/><polygon points="1221 608.382 1017.382 812 915.558 812 1221 506.558 1221 608.382" style="fill:#fd5b78"/><polygon points="1221 812 1119.205 812 1221 710.205 1221 812" style="fill:#fd5b78"/><polygon points="2035 101.795 1933.205 0 1831.382 0 2035 203.618 2035 101.795" style="fill:none"/><polygon points="2035 305.442 1729.558 0 1629.149 0 2035 405.851 2035 305.442" style="fill:none"/><polygon points="1933.326 406 1629 101.674 1629 204.205 1830.795 406 1933.326 406" style="fill:none"/><polygon points="1629 306.028 1629 406 1728.972 406 1629 306.028" style="fill:none"/><polygon points="1830.795 406 1629 204.205 1629 306.028 1728.972 406 1830.795 406" style="fill:#999"/><polygon points="2035 406 2035 405.851 1629.149 0 1629 0 1629 101.674 1933.326 406 2035 406" style="fill:#999"/><polygon points="2035 203.618 1831.382 0 1729.558 0 2035 305.442 2035 203.618" style="fill:#999"/><polygon points="2035 0 1933.205 0 2035 101.795 2035 0" style="fill:#999"/><polygon points="2441 507.795 2339.205 406 2237.382 406 2441 609.618 2441 507.795" style="fill:none"/><polygon points="2441 711.442 2135.558 406 2035.149 406 2441 811.851 2441 711.442" style="fill:none"/><polygon points="2339.326 812 2035 507.674 2035 610.205 2236.795 812 2339.326 812" style="fill:none"/><polygon points="2035 712.028 2035 812 2134.972 812 2035 712.028" style="fill:none"/><polygon points="2236.795 812 2035 610.205 2035 712.028 2134.972 812 2236.795 812" style="fill:#999"/><polygon points="2441 812 2441 811.851 2035.149 406 2035 406 2035 507.674 2339.326 812 2441 812" style="fill:#999"/><polygon points="2441 609.618 2237.382 406 2135.558 406 2441 711.442 2441 609.618" style="fill:#999"/><polygon points="2441 406 2339.205 406 2441 507.795 2441 406" style="fill:#999"/><polygon points="2441 304.205 2339.205 406 2237.382 406 2441 202.382 2441 304.205" style="fill:none"/><polygon points="2441 100.558 2135.558 406 2035.149 406 2441 0.149 2441 100.558" style="fill:none"/><polygon points="2339.326 0 2035 304.326 2035 201.795 2236.795 0 2339.326 0" style="fill:none"/><polygon points="2035 99.972 2035 0 2134.972 0 2035 99.972" style="fill:none"/><polygon points="2236.795 0 2035 201.795 2035 99.972 2134.972 0 2236.795 0" style="fill:#fd5b78"/><polygon points="2441 0 2441 0.149 2035.149 406 2035 406 2035 304.326 2339.326 0 2441 0" style="fill:#fd5b78"/><polygon points="2441 202.382 2237.382 406 2135.558 406 2441 100.558 2441 202.382" style="fill:#fd5b78"/><polygon points="2441 406 2339.205 406 2441 304.205 2441 406" style="fill:#fd5b78"/><polygon points="2034 710.205 1932.205 812 1830.382 812 2034 608.382 2034 710.205" style="fill:none"/><polygon points="2034 506.558 1728.558 812 1628.149 812 2034 406.149 2034 506.558" style="fill:none"/><polygon points="1932.326 406 1628 710.326 1628 607.795 1829.795 406 1932.326 406" style="fill:none"/><polygon points="1628 505.972 1628 406 1727.972 406 1628 505.972" style="fill:none"/><polygon points="1829.795 406 1628 607.795 1628 505.972 1727.972 406 1829.795 406" style="fill:#fd5b78"/><polygon points="2034 406 2034 406.149 1628.149 812 1628 812 1628 710.326 1932.326 406 2034 406" style="fill:#fd5b78"/><polygon points="2034 608.382 1830.382 812 1728.558 812 2034 506.558 2034 608.382" style="fill:#fd5b78"/><polygon points="2034 812 1932.205 812 2034 710.205 2034 812" style="fill:#fd5b78"/><polygon points="2848 101.795 2746.205 0 2644.382 0 2848 203.618 2848 101.795" style="fill:none"/><polygon points="2848 305.442 2542.558 0 2442.149 0 2848 405.851 2848 305.442" style="fill:none"/><polygon points="2746.326 406 2442 101.674 2442 204.205 2643.795 406 2746.326 406" style="fill:none"/><polygon points="2442 306.028 2442 406 2541.972 406 2442 306.028" style="fill:none"/><polygon points="2643.795 406 2442 204.205 2442 306.028 2541.972 406 2643.795 406" style="fill:#999"/><polygon points="2848 406 2848 405.851 2442.149 0 2442 0 2442 101.674 2746.326 406 2848 406" style="fill:#999"/><polygon points="2848 203.618 2644.382 0 2542.558 0 2848 305.442 2848 203.618" style="fill:#999"/><polygon points="2848 0 2746.205 0 2848 101.795 2848 0" style="fill:#999"/><polygon points="3254 507.795 3152.205 406 3050.382 406 3254 609.618 3254 507.795" style="fill:none"/><polygon points="3254 711.442 2948.558 406 2848.149 406 3254 811.851 3254 711.442" style="fill:none"/><polygon points="3152.326 812 2848 507.674 2848 610.205 3049.795 812 3152.326 812" style="fill:none"/><polygon points="2848 712.028 2848 812 2947.972 812 2848 712.028" style="fill:none"/><polygon points="3049.795 812 2848 610.205 2848 712.028 2947.972 812 3049.795 812" style="fill:#999"/><polygon points="3254 812 3254 811.851 2848.149 406 2848 406 2848 507.674 3152.326 812 3254 812" style="fill:#999"/><polygon points="3254 609.618 3050.382 406 2948.558 406 3254 711.442 3254 609.618" style="fill:#999"/><polygon points="3254 406 3152.205 406 3254 507.795 3254 406" style="fill:#999"/><polygon points="3254 304.205 3152.205 406 3050.382 406 3254 202.382 3254 304.205" style="fill:none"/><polygon points="3254 100.558 2948.558 406 2848.149 406 3254 0.149 3254 100.558" style="fill:none"/><polygon points="3152.326 0 2848 304.326 2848 201.795 3049.795 0 3152.326 0" style="fill:none"/><polygon points="2848 99.972 2848 0 2947.972 0 2848 99.972" style="fill:none"/><polygon points="3049.795 0 2848 201.795 2848 99.972 2947.972 0 3049.795 0" style="fill:#fd5b78"/><polygon points="3254 0 3254 0.149 2848.149 406 2848 406 2848 304.326 3152.326 0 3254 0" style="fill:#fd5b78"/><polygon points="3254 202.382 3050.382 406 2948.558 406 3254 100.558 3254 202.382" style="fill:#fd5b78"/><polygon points="3254 406 3152.205 406 3254 304.205 3254 406" style="fill:#fd5b78"/><polygon points="2847 710.205 2745.205 812 2643.382 812 2847 608.382 2847 710.205" style="fill:none"/><polygon points="2847 506.558 2541.558 812 2441.149 812 2847 406.149 2847 506.558" style="fill:none"/><polygon points="2745.326 406 2441 710.326 2441 607.795 2642.795 406 2745.326 406" style="fill:none"/><polygon points="2441 505.972 2441 406 2540.972 406 2441 505.972" style="fill:#999"/><polygon points="2642.795 406 2441 607.795 2441 505.972 2540.972 406 2642.795 406" style="fill:#fd5b78"/><polygon points="2847 406 2847 406.149 2441.149 812 2441 812 2441 710.326 2745.326 406 2847 406" style="fill:#fd5b78"/><polygon points="2847 608.382 2643.382 812 2541.558 812 2847 506.558 2847 608.382" style="fill:#fd5b78"/><polygon points="2847 812 2745.205 812 2847 710.205 2847 812" style="fill:#fd5b78"/><polygon points="407 913.795 305.205 812 203.382 812 407 1015.618 407 913.795" style="fill:none"/><polygon points="407 1117.442 101.558 812 1.149 812 407 1217.851 407 1117.442" style="fill:none"/><polygon points="305.326 1218 1 913.674 1 1016.205 202.795 1218 305.326 1218" style="fill:none"/><polygon points="1 1118.028 1 1218 100.972 1218 1 1118.028" style="fill:none"/><polygon points="202.795 1218 1 1016.205 1 1118.028 100.972 1218 202.795 1218" style="fill:#999"/><polygon points="407 1218 407 1217.851 1.149 812 1 812 1 913.674 305.326 1218 407 1218" style="fill:#999"/><polygon points="407 1015.618 203.382 812 101.558 812 407 1117.442 407 1015.618" style="fill:#999"/><polygon points="407 812 305.205 812 407 913.795 407 812" style="fill:#999"/><polygon points="813 1319.795 711.205 1218 609.382 1218 813 1421.618 813 1319.795" style="fill:none"/><polygon points="813 1523.442 507.558 1218 407.149 1218 813 1623.851 813 1523.442" style="fill:none"/><polygon points="711.326 1624 407 1319.674 407 1422.205 608.795 1624 711.326 1624" style="fill:none"/><polygon points="407 1524.028 407 1624 506.972 1624 407 1524.028" style="fill:none"/><polygon points="608.795 1624 407 1422.205 407 1524.028 506.972 1624 608.795 1624" style="fill:#999"/><polygon points="813 1624 813 1623.851 407.149 1218 407 1218 407 1319.674 711.326 1624 813 1624" style="fill:#999"/><polygon points="813 1421.618 609.382 1218 507.558 1218 813 1523.442 813 1421.618" style="fill:#999"/><polygon points="813 1218 711.205 1218 813 1319.795 813 1218" style="fill:#999"/><polygon points="813 1116.205 711.205 1218 609.382 1218 813 1014.382 813 1116.205" style="fill:none"/><polygon points="813 912.558 507.558 1218 407.149 1218 813 812.149 813 912.558" style="fill:none"/><polygon points="711.326 812 407 1116.326 407 1013.795 608.795 812 711.326 812" style="fill:none"/><polygon points="407 911.972 407 812 506.972 812 407 911.972" style="fill:none"/><polygon points="608.795 812 407 1013.795 407 911.972 506.972 812 608.795 812" style="fill:#fd5b78"/><polygon points="813 812 813 812.149 407.149 1218 407 1218 407 1116.326 711.326 812 813 812" style="fill:#fd5b78"/><polygon points="813 1014.382 609.382 1218 507.558 1218 813 912.558 813 1014.382" style="fill:#fd5b78"/><polygon points="813 1218 711.205 1218 813 1116.205 813 1218" style="fill:#fd5b78"/><polygon points="406 1522.205 304.205 1624 202.382 1624 406 1420.382 406 1522.205" style="fill:none"/><polygon points="406 1318.558 100.558 1624 0.149 1624 406 1218.149 406 1318.558" style="fill:none"/><polygon points="304.326 1218 0 1522.326 0 1419.795 201.795 1218 304.326 1218" style="fill:none"/><polygon points="0 1317.972 0 1218 99.972 1218 0 1317.972" style="fill:none"/><polygon points="201.795 1218 0 1419.795 0 1317.972 99.972 1218 201.795 1218" style="fill:#fd5b78"/><polygon points="406 1218 406 1218.149 0.149 1624 0 1624 0 1522.326 304.326 1218 406 1218" style="fill:#fd5b78"/><polygon points="406 1420.382 202.382 1624 100.558 1624 406 1318.558 406 1420.382" style="fill:#fd5b78"/><polygon points="406 1624 304.205 1624 406 1522.205 406 1624" style="fill:#fd5b78"/><polygon points="1222 913.795 1120.205 812 1018.382 812 1222 1015.618 1222 913.795" style="fill:none"/><polygon points="1222 1117.442 916.558 812 816.149 812 1222 1217.851 1222 1117.442" style="fill:none"/><polygon points="1120.326 1218 816 913.674 816 1016.205 1017.795 1218 1120.326 1218" style="fill:none"/><polygon points="816 1118.028 816 1218 915.972 1218 816 1118.028" style="fill:none"/><polygon points="1017.795 1218 816 1016.205 816 1118.028 915.972 1218 1017.795 1218" style="fill:#999"/><polygon points="1222 1218 1222 1217.851 816.149 812 816 812 816 913.674 1120.326 1218 1222 1218" style="fill:#999"/><polygon points="1222 1015.618 1018.382 812 916.558 812 1222 1117.442 1222 1015.618" style="fill:#999"/><polygon points="1222 812 1120.205 812 1222 913.795 1222 812" style="fill:#999"/><polygon points="1628 1319.795 1526.205 1218 1424.382 1218 1628 1421.618 1628 1319.795" style="fill:none"/><polygon points="1628 1523.442 1322.558 1218 1222.149 1218 1628 1623.851 1628 1523.442" style="fill:none"/><polygon points="1526.326 1624 1222 1319.674 1222 1422.205 1423.795 1624 1526.326 1624" style="fill:none"/><polygon points="1222 1524.028 1222 1624 1321.972 1624 1222 1524.028" style="fill:none"/><polygon points="1423.795 1624 1222 1422.205 1222 1524.028 1321.972 1624 1423.795 1624" style="fill:#999"/><polygon points="1628 1624 1628 1623.851 1222.149 1218 1222 1218 1222 1319.674 1526.326 1624 1628 1624" style="fill:#999"/><polygon points="1628 1421.618 1424.382 1218 1322.558 1218 1628 1523.442 1628 1421.618" style="fill:#999"/><polygon points="1628 1218 1526.205 1218 1628 1319.795 1628 1218" style="fill:#999"/><polygon points="1628 1116.205 1526.205 1218 1424.382 1218 1628 1014.382 1628 1116.205" style="fill:none"/><polygon points="1628 912.558 1322.558 1218 1222.149 1218 1628 812.149 1628 912.558" style="fill:none"/><polygon points="1526.326 812 1222 1116.326 1222 1013.795 1423.795 812 1526.326 812" style="fill:none"/><polygon points="1222 911.972 1222 812 1321.972 812 1222 911.972" style="fill:none"/><polygon points="1423.795 812 1222 1013.795 1222 911.972 1321.972 812 1423.795 812" style="fill:#fd5b78"/><polygon points="1628 812 1628 812.149 1222.149 1218 1222 1218 1222 1116.326 1526.326 812 1628 812" style="fill:#fd5b78"/><polygon points="1628 1014.382 1424.382 1218 1322.558 1218 1628 912.558 1628 1014.382" style="fill:#fd5b78"/><polygon points="1628 1218 1526.205 1218 1628 1116.205 1628 1218" style="fill:#fd5b78"/><polygon points="1221 1522.205 1119.205 1624 1017.382 1624 1221 1420.382 1221 1522.205" style="fill:none"/><polygon points="1221 1318.558 915.558 1624 815.149 1624 1221 1218.149 1221 1318.558" style="fill:none"/><polygon points="1119.326 1218 815 1522.326 815 1419.795 1016.795 1218 1119.326 1218" style="fill:none"/><polygon points="815 1317.972 815 1218 914.972 1218 815 1317.972" style="fill:#999"/><polygon points="1016.795 1218 815 1419.795 815 1317.972 914.972 1218 1016.795 1218" style="fill:#fd5b78"/><polygon points="1221 1218 1221 1218.149 815.149 1624 815 1624 815 1522.326 1119.326 1218 1221 1218" style="fill:#fd5b78"/><polygon points="1221 1420.382 1017.382 1624 915.558 1624 1221 1318.558 1221 1420.382" style="fill:#fd5b78"/><polygon points="1221 1624 1119.205 1624 1221 1522.205 1221 1624" style="fill:#fd5b78"/><polygon points="2035 913.795 1933.205 812 1831.382 812 2035 1015.618 2035 913.795" style="fill:none"/><polygon points="2035 1117.442 1729.558 812 1629.149 812 2035 1217.851 2035 1117.442" style="fill:none"/><polygon points="1933.326 1218 1629 913.674 1629 1016.205 1830.795 1218 1933.326 1218" style="fill:none"/><polygon points="1629 1118.028 1629 1218 1728.972 1218 1629 1118.028" style="fill:none"/><polygon points="1830.795 1218 1629 1016.205 1629 1118.028 1728.972 1218 1830.795 1218" style="fill:#999"/><polygon points="2035 1218 2035 1217.851 1629.149 812 1629 812 1629 913.674 1933.326 1218 2035 1218" style="fill:#999"/><polygon points="2035 1015.618 1831.382 812 1729.558 812 2035 1117.442 2035 1015.618" style="fill:#999"/><polygon points="2035 812 1933.205 812 2035 913.795 2035 812" style="fill:#999"/><polygon points="2441 1319.795 2339.205 1218 2237.382 1218 2441 1421.618 2441 1319.795" style="fill:none"/><polygon points="2441 1523.442 2135.558 1218 2035.149 1218 2441 1623.851 2441 1523.442" style="fill:none"/><polygon points="2339.326 1624 2035 1319.674 2035 1422.205 2236.795 1624 2339.326 1624" style="fill:none"/><polygon points="2035 1524.028 2035 1624 2134.972 1624 2035 1524.028" style="fill:none"/><polygon points="2236.795 1624 2035 1422.205 2035 1524.028 2134.972 1624 2236.795 1624" style="fill:#999"/><polygon points="2441 1624 2441 1623.851 2035.149 1218 2035 1218 2035 1319.674 2339.326 1624 2441 1624" style="fill:#999"/><polygon points="2441 1421.618 2237.382 1218 2135.558 1218 2441 1523.442 2441 1421.618" style="fill:#999"/><polygon points="2441 1218 2339.205 1218 2441 1319.795 2441 1218" style="fill:#999"/><polygon points="2441 1116.205 2339.205 1218 2237.382 1218 2441 1014.382 2441 1116.205" style="fill:none"/><polygon points="2441 912.558 2135.558 1218 2035.149 1218 2441 812.149 2441 912.558" style="fill:none"/><polygon points="2339.326 812 2035 1116.326 2035 1013.795 2236.795 812 2339.326 812" style="fill:none"/><polygon points="2035 911.972 2035 812 2134.972 812 2035 911.972" style="fill:none"/><polygon points="2236.795 812 2035 1013.795 2035 911.972 2134.972 812 2236.795 812" style="fill:#fd5b78"/><polygon points="2441 812 2441 812.149 2035.149 1218 2035 1218 2035 1116.326 2339.326 812 2441 812" style="fill:#fd5b78"/><polygon points="2441 1014.382 2237.382 1218 2135.558 1218 2441 912.558 2441 1014.382" style="fill:#fd5b78"/><polygon points="2441 1218 2339.205 1218 2441 1116.205 2441 1218" style="fill:#fd5b78"/><polygon points="2034 1522.205 1932.205 1624 1830.382 1624 2034 1420.382 2034 1522.205" style="fill:none"/><polygon points="2034 1318.558 1728.558 1624 1628.149 1624 2034 1218.149 2034 1318.558" style="fill:none"/><polygon points="1932.326 1218 1628 1522.326 1628 1419.795 1829.795 1218 1932.326 1218" style="fill:none"/><polygon points="1628 1317.972 1628 1218 1727.972 1218 1628 1317.972" style="fill:none"/><polygon points="1829.795 1218 1628 1419.795 1628 1317.972 1727.972 1218 1829.795 1218" style="fill:#fd5b78"/><polygon points="2034 1218 2034 1218.149 1628.149 1624 1628 1624 1628 1522.326 1932.326 1218 2034 1218" style="fill:#fd5b78"/><polygon points="2034 1420.382 1830.382 1624 1728.558 1624 2034 1318.558 2034 1420.382" style="fill:#fd5b78"/><polygon points="2034 1624 1932.205 1624 2034 1522.205 2034 1624" style="fill:#fd5b78"/><polygon points="2848 913.795 2746.205 812 2644.382 812 2848 1015.618 2848 913.795" style="fill:none"/><polygon points="2848 1117.442 2542.558 812 2442.149 812 2848 1217.851 2848 1117.442" style="fill:none"/><polygon points="2746.326 1218 2442 913.674 2442 1016.205 2643.795 1218 2746.326 1218" style="fill:none"/><polygon points="2442 1118.028 2442 1218 2541.972 1218 2442 1118.028" style="fill:none"/><polygon points="2643.795 1218 2442 1016.205 2442 1118.028 2541.972 1218 2643.795 1218" style="fill:#999"/><polygon points="2848 1218 2848 1217.851 2442.149 812 2442 812 2442 913.674 2746.326 1218 2848 1218" style="fill:#999"/><polygon points="2848 1015.618 2644.382 812 2542.558 812 2848 1117.442 2848 1015.618" style="fill:#999"/><polygon points="2848 812 2746.205 812 2848 913.795 2848 812" style="fill:#999"/><polygon points="3254 1319.795 3152.205 1218 3050.382 1218 3254 1421.618 3254 1319.795" style="fill:none"/><polygon points="3254 1523.442 2948.558 1218 2848.149 1218 3254 1623.851 3254 1523.442" style="fill:none"/><polygon points="3152.326 1624 2848 1319.674 2848 1422.205 3049.795 1624 3152.326 1624" style="fill:none"/><polygon points="2848 1524.028 2848 1624 2947.972 1624 2848 1524.028" style="fill:none"/><polygon points="3049.795 1624 2848 1422.205 2848 1524.028 2947.972 1624 3049.795 1624" style="fill:#999"/><polygon points="3254 1624 3254 1623.851 2848.149 1218 2848 1218 2848 1319.674 3152.326 1624 3254 1624" style="fill:#999"/><polygon points="3254 1421.618 3050.382 1218 2948.558 1218 3254 1523.442 3254 1421.618" style="fill:#999"/><polygon points="3254 1218 3152.205 1218 3254 1319.795 3254 1218" style="fill:#999"/><polygon points="3254 1116.205 3152.205 1218 3050.382 1218 3254 1014.382 3254 1116.205" style="fill:none"/><polygon points="3254 912.558 2948.558 1218 2848.149 1218 3254 812.149 3254 912.558" style="fill:none"/><polygon points="3152.326 812 2848 1116.326 2848 1013.795 3049.795 812 3152.326 812" style="fill:none"/><polygon points="2848 911.972 2848 812 2947.972 812 2848 911.972" style="fill:none"/><polygon points="3049.795 812 2848 1013.795 2848 911.972 2947.972 812 3049.795 812" style="fill:#fd5b78"/><polygon points="3254 812 3254 812.149 2848.149 1218 2848 1218 2848 1116.326 3152.326 812 3254 812" style="fill:#fd5b78"/><polygon points="3254 1014.382 3050.382 1218 2948.558 1218 3254 912.558 3254 1014.382" style="fill:#fd5b78"/><polygon points="3254 1218 3152.205 1218 3254 1116.205 3254 1218" style="fill:#fd5b78"/><polygon points="2847 1522.205 2745.205 1624 2643.382 1624 2847 1420.382 2847 1522.205" style="fill:none"/><polygon points="2847 1318.558 2541.558 1624 2441.149 1624 2847 1218.149 2847 1318.558" style="fill:none"/><polygon points="2745.326 1218 2441 1522.326 2441 1419.795 2642.795 1218 2745.326 1218" style="fill:none"/><polygon points="2441 1317.972 2441 1218 2540.972 1218 2441 1317.972" style="fill:#999"/><polygon points="2642.795 1218 2441 1419.795 2441 1317.972 2540.972 1218 2642.795 1218" style="fill:#fd5b78"/><polygon points="2847 1218 2847 1218.149 2441.149 1624 2441 1624 2441 1522.326 2745.326 1218 2847 1218" style="fill:#fd5b78"/><polygon points="2847 1420.382 2643.382 1624 2541.558 1624 2847 1318.558 2847 1420.382" style="fill:#fd5b78"/><polygon points="2847 1624 2745.205 1624 2847 1522.205 2847 1624" style="fill:#fd5b78"/><polygon points="409 1725.795 307.205 1624 205.382 1624 409 1827.618 409 1725.795" style="fill:none"/><polygon points="409 1929.442 103.558 1624 3.149 1624 409 2029.851 409 1929.442" style="fill:none"/><polygon points="307.326 2030 3 1725.674 3 1828.205 204.795 2030 307.326 2030" style="fill:none"/><polygon points="3 1930.028 3 2030 102.972 2030 3 1930.028" style="fill:none"/><polygon points="204.795 2030 3 1828.205 3 1930.028 102.972 2030 204.795 2030" style="fill:#999"/><polygon points="409 2030 409 2029.851 3.149 1624 3 1624 3 1725.674 307.326 2030 409 2030" style="fill:#999"/><polygon points="409 1827.618 205.382 1624 103.558 1624 409 1929.442 409 1827.618" style="fill:#999"/><polygon points="409 1624 307.205 1624 409 1725.795 409 1624" style="fill:#999"/><polygon points="815 2131.795 713.205 2030 611.382 2030 815 2233.618 815 2131.795" style="fill:none"/><polygon points="815 2335.442 509.558 2030 409.149 2030 815 2435.851 815 2335.442" style="fill:none"/><polygon points="713.326 2436 409 2131.674 409 2234.205 610.795 2436 713.326 2436" style="fill:none"/><polygon points="409 2336.028 409 2436 508.972 2436 409 2336.028" style="fill:none"/><polygon points="610.795 2436 409 2234.205 409 2336.028 508.972 2436 610.795 2436" style="fill:#999"/><polygon points="815 2436 815 2435.851 409.149 2030 409 2030 409 2131.674 713.326 2436 815 2436" style="fill:#999"/><polygon points="815 2233.618 611.382 2030 509.558 2030 815 2335.442 815 2233.618" style="fill:#999"/><polygon points="815 2030 713.205 2030 815 2131.795 815 2030" style="fill:#999"/><polygon points="815 1928.205 713.205 2030 611.382 2030 815 1826.382 815 1928.205" style="fill:none"/><polygon points="815 1724.558 509.558 2030 409.149 2030 815 1624.149 815 1724.558" style="fill:none"/><polygon points="713.326 1624 409 1928.326 409 1825.795 610.795 1624 713.326 1624" style="fill:none"/><polygon points="409 1723.972 409 1624 508.972 1624 409 1723.972" style="fill:none"/><polygon points="610.795 1624 409 1825.795 409 1723.972 508.972 1624 610.795 1624" style="fill:#fd5b78"/><polygon points="815 1624 815 1624.149 409.149 2030 409 2030 409 1928.326 713.326 1624 815 1624" style="fill:#fd5b78"/><polygon points="815 1826.382 611.382 2030 509.558 2030 815 1724.558 815 1826.382" style="fill:#fd5b78"/><polygon points="815 2030 713.205 2030 815 1928.205 815 2030" style="fill:#fd5b78"/><polygon points="408 2334.205 306.205 2436 204.382 2436 408 2232.382 408 2334.205" style="fill:none"/><polygon points="408 2130.558 102.558 2436 2.149 2436 408 2030.149 408 2130.558" style="fill:none"/><polygon points="306.326 2030 2 2334.326 2 2231.795 203.795 2030 306.326 2030" style="fill:none"/><polygon points="2 2129.972 2 2030 101.972 2030 2 2129.972" style="fill:none"/><polygon points="203.795 2030 2 2231.795 2 2129.972 101.972 2030 203.795 2030" style="fill:#fd5b78"/><polygon points="408 2030 408 2030.149 2.149 2436 2 2436 2 2334.326 306.326 2030 408 2030" style="fill:#fd5b78"/><polygon points="408 2232.382 204.382 2436 102.558 2436 408 2130.558 408 2232.382" style="fill:#fd5b78"/><polygon points="408 2436 306.205 2436 408 2334.205 408 2436" style="fill:#fd5b78"/><polygon points="1224 1725.795 1122.205 1624 1020.382 1624 1224 1827.618 1224 1725.795" style="fill:none"/><polygon points="1224 1929.442 918.558 1624 818.149 1624 1224 2029.851 1224 1929.442" style="fill:none"/><polygon points="1122.326 2030 818 1725.674 818 1828.205 1019.795 2030 1122.326 2030" style="fill:none"/><polygon points="818 1930.028 818 2030 917.972 2030 818 1930.028" style="fill:none"/><polygon points="1019.795 2030 818 1828.205 818 1930.028 917.972 2030 1019.795 2030" style="fill:#999"/><polygon points="1224 2030 1224 2029.851 818.149 1624 818 1624 818 1725.674 1122.326 2030 1224 2030" style="fill:#999"/><polygon points="1224 1827.618 1020.382 1624 918.558 1624 1224 1929.442 1224 1827.618" style="fill:#999"/><polygon points="1224 1624 1122.205 1624 1224 1725.795 1224 1624" style="fill:#999"/><polygon points="1630 2131.795 1528.205 2030 1426.382 2030 1630 2233.618 1630 2131.795" style="fill:none"/><polygon points="1630 2335.442 1324.558 2030 1224.149 2030 1630 2435.851 1630 2335.442" style="fill:none"/><polygon points="1528.326 2436 1224 2131.674 1224 2234.205 1425.795 2436 1528.326 2436" style="fill:none"/><polygon points="1224 2336.028 1224 2436 1323.972 2436 1224 2336.028" style="fill:none"/><polygon points="1425.795 2436 1224 2234.205 1224 2336.028 1323.972 2436 1425.795 2436" style="fill:#999"/><polygon points="1630 2436 1630 2435.851 1224.149 2030 1224 2030 1224 2131.674 1528.326 2436 1630 2436" style="fill:#999"/><polygon points="1630 2233.618 1426.382 2030 1324.558 2030 1630 2335.442 1630 2233.618" style="fill:#999"/><polygon points="1630 2030 1528.205 2030 1630 2131.795 1630 2030" style="fill:#999"/><polygon points="1630 1928.205 1528.205 2030 1426.382 2030 1630 1826.382 1630 1928.205" style="fill:none"/><polygon points="1630 1724.558 1324.558 2030 1224.149 2030 1630 1624.149 1630 1724.558" style="fill:none"/><polygon points="1528.326 1624 1224 1928.326 1224 1825.795 1425.795 1624 1528.326 1624" style="fill:none"/><polygon points="1224 1723.972 1224 1624 1323.972 1624 1224 1723.972" style="fill:none"/><polygon points="1425.795 1624 1224 1825.795 1224 1723.972 1323.972 1624 1425.795 1624" style="fill:#fd5b78"/><polygon points="1630 1624 1630 1624.149 1224.149 2030 1224 2030 1224 1928.326 1528.326 1624 1630 1624" style="fill:#fd5b78"/><polygon points="1630 1826.382 1426.382 2030 1324.558 2030 1630 1724.558 1630 1826.382" style="fill:#fd5b78"/><polygon points="1630 2030 1528.205 2030 1630 1928.205 1630 2030" style="fill:#fd5b78"/><polygon points="1223 2334.205 1121.205 2436 1019.382 2436 1223 2232.382 1223 2334.205" style="fill:none"/><polygon points="1223 2130.558 917.558 2436 817.149 2436 1223 2030.149 1223 2130.558" style="fill:none"/><polygon points="1121.326 2030 817 2334.326 817 2231.795 1018.795 2030 1121.326 2030" style="fill:none"/><polygon points="817 2129.972 817 2030 916.972 2030 817 2129.972" style="fill:#999"/><polygon points="1018.795 2030 817 2231.795 817 2129.972 916.972 2030 1018.795 2030" style="fill:#fd5b78"/><polygon points="1223 2030 1223 2030.149 817.149 2436 817 2436 817 2334.326 1121.326 2030 1223 2030" style="fill:#fd5b78"/><polygon points="1223 2232.382 1019.382 2436 917.558 2436 1223 2130.558 1223 2232.382" style="fill:#fd5b78"/><polygon points="1223 2436 1121.205 2436 1223 2334.205 1223 2436" style="fill:#fd5b78"/><polygon points="2037 1725.795 1935.205 1624 1833.382 1624 2037 1827.618 2037 1725.795" style="fill:none"/><polygon points="2037 1929.442 1731.558 1624 1631.149 1624 2037 2029.851 2037 1929.442" style="fill:none"/><polygon points="1935.326 2030 1631 1725.674 1631 1828.205 1832.795 2030 1935.326 2030" style="fill:none"/><polygon points="1631 1930.028 1631 2030 1730.972 2030 1631 1930.028" style="fill:none"/><polygon points="1832.795 2030 1631 1828.205 1631 1930.028 1730.972 2030 1832.795 2030" style="fill:#999"/><polygon points="2037 2030 2037 2029.851 1631.149 1624 1631 1624 1631 1725.674 1935.326 2030 2037 2030" style="fill:#999"/><polygon points="2037 1827.618 1833.382 1624 1731.558 1624 2037 1929.442 2037 1827.618" style="fill:#999"/><polygon points="2037 1624 1935.205 1624 2037 1725.795 2037 1624" style="fill:#999"/><polygon points="2443 2131.795 2341.205 2030 2239.382 2030 2443 2233.618 2443 2131.795" style="fill:none"/><polygon points="2443 2335.442 2137.558 2030 2037.149 2030 2443 2435.851 2443 2335.442" style="fill:none"/><polygon points="2341.326 2436 2037 2131.674 2037 2234.205 2238.795 2436 2341.326 2436" style="fill:none"/><polygon points="2037 2336.028 2037 2436 2136.972 2436 2037 2336.028" style="fill:none"/><polygon points="2238.795 2436 2037 2234.205 2037 2336.028 2136.972 2436 2238.795 2436" style="fill:#999"/><polygon points="2443 2436 2443 2435.851 2037.149 2030 2037 2030 2037 2131.674 2341.326 2436 2443 2436" style="fill:#999"/><polygon points="2443 2233.618 2239.382 2030 2137.558 2030 2443 2335.442 2443 2233.618" style="fill:#999"/><polygon points="2443 2030 2341.205 2030 2443 2131.795 2443 2030" style="fill:#999"/><polygon points="2443 1928.205 2341.205 2030 2239.382 2030 2443 1826.382 2443 1928.205" style="fill:none"/><polygon points="2443 1724.558 2137.558 2030 2037.149 2030 2443 1624.149 2443 1724.558" style="fill:none"/><polygon points="2341.326 1624 2037 1928.326 2037 1825.795 2238.795 1624 2341.326 1624" style="fill:none"/><polygon points="2037 1723.972 2037 1624 2136.972 1624 2037 1723.972" style="fill:none"/><polygon points="2238.795 1624 2037 1825.795 2037 1723.972 2136.972 1624 2238.795 1624" style="fill:#fd5b78"/><polygon points="2443 1624 2443 1624.149 2037.149 2030 2037 2030 2037 1928.326 2341.326 1624 2443 1624" style="fill:#fd5b78"/><polygon points="2443 1826.382 2239.382 2030 2137.558 2030 2443 1724.558 2443 1826.382" style="fill:#fd5b78"/><polygon points="2443 2030 2341.205 2030 2443 1928.205 2443 2030" style="fill:#fd5b78"/><polygon points="2036 2334.205 1934.205 2436 1832.382 2436 2036 2232.382 2036 2334.205" style="fill:none"/><polygon points="2036 2130.558 1730.558 2436 1630.149 2436 2036 2030.149 2036 2130.558" style="fill:none"/><polygon points="1934.326 2030 1630 2334.326 1630 2231.795 1831.795 2030 1934.326 2030" style="fill:none"/><polygon points="1630 2129.972 1630 2030 1729.972 2030 1630 2129.972" style="fill:none"/><polygon points="1831.795 2030 1630 2231.795 1630 2129.972 1729.972 2030 1831.795 2030" style="fill:#fd5b78"/><polygon points="2036 2030 2036 2030.149 1630.149 2436 1630 2436 1630 2334.326 1934.326 2030 2036 2030" style="fill:#fd5b78"/><polygon points="2036 2232.382 1832.382 2436 1730.558 2436 2036 2130.558 2036 2232.382" style="fill:#fd5b78"/><polygon points="2036 2436 1934.205 2436 2036 2334.205 2036 2436" style="fill:#fd5b78"/><polygon points="2850 1725.795 2748.205 1624 2646.382 1624 2850 1827.618 2850 1725.795" style="fill:none"/><polygon points="2850 1929.442 2544.558 1624 2444.149 1624 2850 2029.851 2850 1929.442" style="fill:none"/><polygon points="2748.326 2030 2444 1725.674 2444 1828.205 2645.795 2030 2748.326 2030" style="fill:none"/><polygon points="2444 1930.028 2444 2030 2543.972 2030 2444 1930.028" style="fill:none"/><polygon points="2645.795 2030 2444 1828.205 2444 1930.028 2543.972 2030 2645.795 2030" style="fill:#999"/><polygon points="2850 2030 2850 2029.851 2444.149 1624 2444 1624 2444 1725.674 2748.326 2030 2850 2030" style="fill:#999"/><polygon points="2850 1827.618 2646.382 1624 2544.558 1624 2850 1929.442 2850 1827.618" style="fill:#999"/><polygon points="2850 1624 2748.205 1624 2850 1725.795 2850 1624" style="fill:#999"/><polygon points="3256 2131.795 3154.205 2030 3052.382 2030 3256 2233.618 3256 2131.795" style="fill:none"/><polygon points="3256 2335.442 2950.558 2030 2850.149 2030 3256 2435.851 3256 2335.442" style="fill:none"/><polygon points="3154.326 2436 2850 2131.674 2850 2234.205 3051.795 2436 3154.326 2436" style="fill:none"/><polygon points="2850 2336.028 2850 2436 2949.972 2436 2850 2336.028" style="fill:none"/><polygon points="3051.795 2436 2850 2234.205 2850 2336.028 2949.972 2436 3051.795 2436" style="fill:#999"/><polygon points="3256 2436 3256 2435.851 2850.149 2030 2850 2030 2850 2131.674 3154.326 2436 3256 2436" style="fill:#999"/><polygon points="3256 2233.618 3052.382 2030 2950.558 2030 3256 2335.442 3256 2233.618" style="fill:#999"/><polygon points="3256 2030 3154.205 2030 3256 2131.795 3256 2030" style="fill:#999"/><polygon points="3256 1928.205 3154.205 2030 3052.382 2030 3256 1826.382 3256 1928.205" style="fill:none"/><polygon points="3256 1724.558 2950.558 2030 2850.149 2030 3256 1624.149 3256 1724.558" style="fill:none"/><polygon points="3154.326 1624 2850 1928.326 2850 1825.795 3051.795 1624 3154.326 1624" style="fill:none"/><polygon points="2850 1723.972 2850 1624 2949.972 1624 2850 1723.972" style="fill:none"/><polygon points="3051.795 1624 2850 1825.795 2850 1723.972 2949.972 1624 3051.795 1624" style="fill:#fd5b78"/><polygon points="3256 1624 3256 1624.149 2850.149 2030 2850 2030 2850 1928.326 3154.326 1624 3256 1624" style="fill:#fd5b78"/><polygon points="3256 1826.382 3052.382 2030 2950.558 2030 3256 1724.558 3256 1826.382" style="fill:#fd5b78"/><polygon points="3256 2030 3154.205 2030 3256 1928.205 3256 2030" style="fill:#fd5b78"/><polygon points="2849 2334.205 2747.205 2436 2645.382 2436 2849 2232.382 2849 2334.205" style="fill:none"/><polygon points="2849 2130.558 2543.558 2436 2443.149 2436 2849 2030.149 2849 2130.558" style="fill:none"/><polygon points="2747.326 2030 2443 2334.326 2443 2231.795 2644.795 2030 2747.326 2030" style="fill:none"/><polygon points="2443 2129.972 2443 2030 2542.972 2030 2443 2129.972" style="fill:#999"/><polygon points="2644.795 2030 2443 2231.795 2443 2129.972 2542.972 2030 2644.795 2030" style="fill:#fd5b78"/><polygon points="2849 2030 2849 2030.149 2443.149 2436 2443 2436 2443 2334.326 2747.326 2030 2849 2030" style="fill:#fd5b78"/><polygon points="2849 2232.382 2645.382 2436 2543.558 2436 2849 2130.558 2849 2232.382" style="fill:#fd5b78"/><polygon points="2849 2436 2747.205 2436 2849 2334.205 2849 2436" style="fill:#fd5b78"/><polygon points="408 2537.795 306.205 2436 204.382 2436 408 2639.618 408 2537.795" style="fill:none"/><polygon points="408 2741.442 102.558 2436 2.149 2436 408 2841.851 408 2741.442" style="fill:none"/><polygon points="306.326 2842 2 2537.674 2 2640.205 203.795 2842 306.326 2842" style="fill:none"/><polygon points="2 2742.028 2 2842 101.972 2842 2 2742.028" style="fill:none"/><polygon points="203.795 2842 2 2640.205 2 2742.028 101.972 2842 203.795 2842" style="fill:#999"/><polygon points="408 2842 408 2841.851 2.149 2436 2 2436 2 2537.674 306.326 2842 408 2842" style="fill:#999"/><polygon points="408 2639.618 204.382 2436 102.558 2436 408 2741.442 408 2639.618" style="fill:#999"/><polygon points="408 2436 306.205 2436 408 2537.795 408 2436" style="fill:#999"/><polygon points="814 2943.795 712.205 2842 610.382 2842 814 3045.618 814 2943.795" style="fill:none"/><polygon points="814 3147.442 508.558 2842 408.149 2842 814 3247.851 814 3147.442" style="fill:none"/><polygon points="712.326 3248 408 2943.674 408 3046.205 609.795 3248 712.326 3248" style="fill:none"/><polygon points="408 3148.028 408 3248 507.972 3248 408 3148.028" style="fill:none"/><polygon points="609.795 3248 408 3046.205 408 3148.028 507.972 3248 609.795 3248" style="fill:#999"/><polygon points="814 3248 814 3247.851 408.149 2842 408 2842 408 2943.674 712.326 3248 814 3248" style="fill:#999"/><polygon points="814 3045.618 610.382 2842 508.558 2842 814 3147.442 814 3045.618" style="fill:#999"/><polygon points="814 2842 712.205 2842 814 2943.795 814 2842" style="fill:#999"/><polygon points="814 2740.205 712.205 2842 610.382 2842 814 2638.382 814 2740.205" style="fill:none"/><polygon points="814 2536.558 508.558 2842 408.149 2842 814 2436.149 814 2536.558" style="fill:none"/><polygon points="712.326 2436 408 2740.326 408 2637.795 609.795 2436 712.326 2436" style="fill:none"/><polygon points="408 2535.972 408 2436 507.972 2436 408 2535.972" style="fill:none"/><polygon points="609.795 2436 408 2637.795 408 2535.972 507.972 2436 609.795 2436" style="fill:#fd5b78"/><polygon points="814 2436 814 2436.149 408.149 2842 408 2842 408 2740.326 712.326 2436 814 2436" style="fill:#fd5b78"/><polygon points="814 2638.382 610.382 2842 508.558 2842 814 2536.558 814 2638.382" style="fill:#fd5b78"/><polygon points="814 2842 712.205 2842 814 2740.205 814 2842" style="fill:#fd5b78"/><polygon points="407 3146.205 305.205 3248 203.382 3248 407 3044.382 407 3146.205" style="fill:none"/><polygon points="407 2942.558 101.558 3248 1.149 3248 407 2842.149 407 2942.558" style="fill:none"/><polygon points="305.326 2842 1 3146.326 1 3043.795 202.795 2842 305.326 2842" style="fill:none"/><polygon points="1 2941.972 1 2842 100.972 2842 1 2941.972" style="fill:none"/><polygon points="202.795 2842 1 3043.795 1 2941.972 100.972 2842 202.795 2842" style="fill:#fd5b78"/><polygon points="407 2842 407 2842.149 1.149 3248 1 3248 1 3146.326 305.326 2842 407 2842" style="fill:#fd5b78"/><polygon points="407 3044.382 203.382 3248 101.558 3248 407 2942.558 407 3044.382" style="fill:#fd5b78"/><polygon points="407 3248 305.205 3248 407 3146.205 407 3248" style="fill:#fd5b78"/><polygon points="1223 2537.795 1121.205 2436 1019.382 2436 1223 2639.618 1223 2537.795" style="fill:none"/><polygon points="1223 2741.442 917.558 2436 817.149 2436 1223 2841.851 1223 2741.442" style="fill:none"/><polygon points="1121.326 2842 817 2537.674 817 2640.205 1018.795 2842 1121.326 2842" style="fill:none"/><polygon points="817 2742.028 817 2842 916.972 2842 817 2742.028" style="fill:none"/><polygon points="1018.795 2842 817 2640.205 817 2742.028 916.972 2842 1018.795 2842" style="fill:#999"/><polygon points="1223 2842 1223 2841.851 817.149 2436 817 2436 817 2537.674 1121.326 2842 1223 2842" style="fill:#999"/><polygon points="1223 2639.618 1019.382 2436 917.558 2436 1223 2741.442 1223 2639.618" style="fill:#999"/><polygon points="1223 2436 1121.205 2436 1223 2537.795 1223 2436" style="fill:#999"/><polygon points="1629 2943.795 1527.205 2842 1425.382 2842 1629 3045.618 1629 2943.795" style="fill:none"/><polygon points="1629 3147.442 1323.558 2842 1223.149 2842 1629 3247.851 1629 3147.442" style="fill:none"/><polygon points="1527.326 3248 1223 2943.674 1223 3046.205 1424.795 3248 1527.326 3248" style="fill:none"/><polygon points="1223 3148.028 1223 3248 1322.972 3248 1223 3148.028" style="fill:none"/><polygon points="1424.795 3248 1223 3046.205 1223 3148.028 1322.972 3248 1424.795 3248" style="fill:#999"/><polygon points="1629 3248 1629 3247.851 1223.149 2842 1223 2842 1223 2943.674 1527.326 3248 1629 3248" style="fill:#999"/><polygon points="1629 3045.618 1425.382 2842 1323.558 2842 1629 3147.442 1629 3045.618" style="fill:#999"/><polygon points="1629 2842 1527.205 2842 1629 2943.795 1629 2842" style="fill:#999"/><polygon points="1629 2740.205 1527.205 2842 1425.382 2842 1629 2638.382 1629 2740.205" style="fill:none"/><polygon points="1629 2536.558 1323.558 2842 1223.149 2842 1629 2436.149 1629 2536.558" style="fill:none"/><polygon points="1527.326 2436 1223 2740.326 1223 2637.795 1424.795 2436 1527.326 2436" style="fill:none"/><polygon points="1223 2535.972 1223 2436 1322.972 2436 1223 2535.972" style="fill:none"/><polygon points="1424.795 2436 1223 2637.795 1223 2535.972 1322.972 2436 1424.795 2436" style="fill:#fd5b78"/><polygon points="1629 2436 1629 2436.149 1223.149 2842 1223 2842 1223 2740.326 1527.326 2436 1629 2436" style="fill:#fd5b78"/><polygon points="1629 2638.382 1425.382 2842 1323.558 2842 1629 2536.558 1629 2638.382" style="fill:#fd5b78"/><polygon points="1629 2842 1527.205 2842 1629 2740.205 1629 2842" style="fill:#fd5b78"/><polygon points="1222 3146.205 1120.205 3248 1018.382 3248 1222 3044.382 1222 3146.205" style="fill:none"/><polygon points="1222 2942.558 916.558 3248 816.149 3248 1222 2842.149 1222 2942.558" style="fill:none"/><polygon points="1120.326 2842 816 3146.326 816 3043.795 1017.795 2842 1120.326 2842" style="fill:none"/><polygon points="816 2941.972 816 2842 915.972 2842 816 2941.972" style="fill:#999"/><polygon points="1017.795 2842 816 3043.795 816 2941.972 915.972 2842 1017.795 2842" style="fill:#fd5b78"/><polygon points="1222 2842 1222 2842.149 816.149 3248 816 3248 816 3146.326 1120.326 2842 1222 2842" style="fill:#fd5b78"/><polygon points="1222 3044.382 1018.382 3248 916.558 3248 1222 2942.558 1222 3044.382" style="fill:#fd5b78"/><polygon points="1222 3248 1120.205 3248 1222 3146.205 1222 3248" style="fill:#fd5b78"/><polygon points="2036 2537.795 1934.205 2436 1832.382 2436 2036 2639.618 2036 2537.795" style="fill:none"/><polygon points="2036 2741.442 1730.558 2436 1630.149 2436 2036 2841.851 2036 2741.442" style="fill:none"/><polygon points="1934.326 2842 1630 2537.674 1630 2640.205 1831.795 2842 1934.326 2842" style="fill:none"/><polygon points="1630 2742.028 1630 2842 1729.972 2842 1630 2742.028" style="fill:none"/><polygon points="1831.795 2842 1630 2640.205 1630 2742.028 1729.972 2842 1831.795 2842" style="fill:#999"/><polygon points="2036 2842 2036 2841.851 1630.149 2436 1630 2436 1630 2537.674 1934.326 2842 2036 2842" style="fill:#999"/><polygon points="2036 2639.618 1832.382 2436 1730.558 2436 2036 2741.442 2036 2639.618" style="fill:#999"/><polygon points="2036 2436 1934.205 2436 2036 2537.795 2036 2436" style="fill:#999"/><polygon points="2442 2943.795 2340.205 2842 2238.382 2842 2442 3045.618 2442 2943.795" style="fill:none"/><polygon points="2442 3147.442 2136.558 2842 2036.149 2842 2442 3247.851 2442 3147.442" style="fill:none"/><polygon points="2340.326 3248 2036 2943.674 2036 3046.205 2237.795 3248 2340.326 3248" style="fill:none"/><polygon points="2036 3148.028 2036 3248 2135.972 3248 2036 3148.028" style="fill:none"/><polygon points="2237.795 3248 2036 3046.205 2036 3148.028 2135.972 3248 2237.795 3248" style="fill:#999"/><polygon points="2442 3248 2442 3247.851 2036.149 2842 2036 2842 2036 2943.674 2340.326 3248 2442 3248" style="fill:#999"/><polygon points="2442 3045.618 2238.382 2842 2136.558 2842 2442 3147.442 2442 3045.618" style="fill:#999"/><polygon points="2442 2842 2340.205 2842 2442 2943.795 2442 2842" style="fill:#999"/><polygon points="2442 2740.205 2340.205 2842 2238.382 2842 2442 2638.382 2442 2740.205" style="fill:none"/><polygon points="2442 2536.558 2136.558 2842 2036.149 2842 2442 2436.149 2442 2536.558" style="fill:none"/><polygon points="2340.326 2436 2036 2740.326 2036 2637.795 2237.795 2436 2340.326 2436" style="fill:none"/><polygon points="2036 2535.972 2036 2436 2135.972 2436 2036 2535.972" style="fill:none"/><polygon points="2237.795 2436 2036 2637.795 2036 2535.972 2135.972 2436 2237.795 2436" style="fill:#fd5b78"/><polygon points="2442 2436 2442 2436.149 2036.149 2842 2036 2842 2036 2740.326 2340.326 2436 2442 2436" style="fill:#fd5b78"/><polygon points="2442 2638.382 2238.382 2842 2136.558 2842 2442 2536.558 2442 2638.382" style="fill:#fd5b78"/><polygon points="2442 2842 2340.205 2842 2442 2740.205 2442 2842" style="fill:#fd5b78"/><polygon points="2035 3146.205 1933.205 3248 1831.382 3248 2035 3044.382 2035 3146.205" style="fill:none"/><polygon points="2035 2942.558 1729.558 3248 1629.149 3248 2035 2842.149 2035 2942.558" style="fill:none"/><polygon points="1933.326 2842 1629 3146.326 1629 3043.795 1830.795 2842 1933.326 2842" style="fill:none"/><polygon points="1629 2941.972 1629 2842 1728.972 2842 1629 2941.972" style="fill:none"/><polygon points="1830.795 2842 1629 3043.795 1629 2941.972 1728.972 2842 1830.795 2842" style="fill:#fd5b78"/><polygon points="2035 2842 2035 2842.149 1629.149 3248 1629 3248 1629 3146.326 1933.326 2842 2035 2842" style="fill:#fd5b78"/><polygon points="2035 3044.382 1831.382 3248 1729.558 3248 2035 2942.558 2035 3044.382" style="fill:#fd5b78"/><polygon points="2035 3248 1933.205 3248 2035 3146.205 2035 3248" style="fill:#fd5b78"/><polygon points="2849 2537.795 2747.205 2436 2645.382 2436 2849 2639.618 2849 2537.795" style="fill:none"/><polygon points="2849 2741.442 2543.558 2436 2443.149 2436 2849 2841.851 2849 2741.442" style="fill:none"/><polygon points="2747.326 2842 2443 2537.674 2443 2640.205 2644.795 2842 2747.326 2842" style="fill:none"/><polygon points="2443 2742.028 2443 2842 2542.972 2842 2443 2742.028" style="fill:none"/><polygon points="2644.795 2842 2443 2640.205 2443 2742.028 2542.972 2842 2644.795 2842" style="fill:#999"/><polygon points="2849 2842 2849 2841.851 2443.149 2436 2443 2436 2443 2537.674 2747.326 2842 2849 2842" style="fill:#999"/><polygon points="2849 2639.618 2645.382 2436 2543.558 2436 2849 2741.442 2849 2639.618" style="fill:#999"/><polygon points="2849 2436 2747.205 2436 2849 2537.795 2849 2436" style="fill:#999"/><polygon points="3255 2943.795 3153.205 2842 3051.382 2842 3255 3045.618 3255 2943.795" style="fill:none"/><polygon points="3255 3147.442 2949.558 2842 2849.149 2842 3255 3247.851 3255 3147.442" style="fill:none"/><polygon points="3153.326 3248 2849 2943.674 2849 3046.205 3050.795 3248 3153.326 3248" style="fill:none"/><polygon points="2849 3148.028 2849 3248 2948.972 3248 2849 3148.028" style="fill:none"/><polygon points="3050.795 3248 2849 3046.205 2849 3148.028 2948.972 3248 3050.795 3248" style="fill:#999"/><polygon points="3255 3248 3255 3247.851 2849.149 2842 2849 2842 2849 2943.674 3153.326 3248 3255 3248" style="fill:#999"/><polygon points="3255 3045.618 3051.382 2842 2949.558 2842 3255 3147.442 3255 3045.618" style="fill:#999"/><polygon points="3255 2842 3153.205 2842 3255 2943.795 3255 2842" style="fill:#999"/><polygon points="3255 2740.205 3153.205 2842 3051.382 2842 3255 2638.382 3255 2740.205" style="fill:none"/><polygon points="3255 2536.558 2949.558 2842 2849.149 2842 3255 2436.149 3255 2536.558" style="fill:none"/><polygon points="3153.326 2436 2849 2740.326 2849 2637.795 3050.795 2436 3153.326 2436" style="fill:none"/><polygon points="2849 2535.972 2849 2436 2948.972 2436 2849 2535.972" style="fill:none"/><polygon points="3050.795 2436 2849 2637.795 2849 2535.972 2948.972 2436 3050.795 2436" style="fill:#fd5b78"/><polygon points="3255 2436 3255 2436.149 2849.149 2842 2849 2842 2849 2740.326 3153.326 2436 3255 2436" style="fill:#fd5b78"/><polygon points="3255 2638.382 3051.382 2842 2949.558 2842 3255 2536.558 3255 2638.382" style="fill:#fd5b78"/><polygon points="3255 2842 3153.205 2842 3255 2740.205 3255 2842" style="fill:#fd5b78"/><polygon points="2848 3146.205 2746.205 3248 2644.382 3248 2848 3044.382 2848 3146.205" style="fill:none"/><polygon points="2848 2942.558 2542.558 3248 2442.149 3248 2848 2842.149 2848 2942.558" style="fill:none"/><polygon points="2746.326 2842 2442 3146.326 2442 3043.795 2643.795 2842 2746.326 2842" style="fill:none"/><polygon points="2442 2941.972 2442 2842 2541.972 2842 2442 2941.972" style="fill:#999"/><polygon points="2643.795 2842 2442 3043.795 2442 2941.972 2541.972 2842 2643.795 2842" style="fill:#fd5b78"/><polygon points="2848 2842 2848 2842.149 2442.149 3248 2442 3248 2442 3146.326 2746.326 2842 2848 2842" style="fill:#fd5b78"/><polygon points="2848 3044.382 2644.382 3248 2542.558 3248 2848 2942.558 2848 3044.382" style="fill:#fd5b78"/><polygon points="2848 3248 2746.205 3248 2848 3146.205 2848 3248" style="fill:#fd5b78"/><polygon points="409 3349.795 307.205 3248 205.382 3248 409 3451.618 409 3349.795" style="fill:none"/><polygon points="409 3553.442 103.558 3248 3.149 3248 409 3653.851 409 3553.442" style="fill:none"/><polygon points="307.326 3654 3 3349.674 3 3452.205 204.795 3654 307.326 3654" style="fill:none"/><polygon points="3 3554.028 3 3654 102.972 3654 3 3554.028" style="fill:none"/><polygon points="204.795 3654 3 3452.205 3 3554.028 102.972 3654 204.795 3654" style="fill:#999"/><polygon points="409 3654 409 3653.851 3.149 3248 3 3248 3 3349.674 307.326 3654 409 3654" style="fill:#999"/><polygon points="409 3451.618 205.382 3248 103.558 3248 409 3553.442 409 3451.618" style="fill:#999"/><polygon points="409 3248 307.205 3248 409 3349.795 409 3248" style="fill:#999"/><polygon points="815 3755.795 713.205 3654 611.382 3654 815 3857.618 815 3755.795" style="fill:none"/><polygon points="815 3959.442 509.558 3654 409.149 3654 815 4059.851 815 3959.442" style="fill:none"/><polygon points="713.326 4060 409 3755.674 409 3858.205 610.795 4060 713.326 4060" style="fill:none"/><polygon points="409 3960.028 409 4060 508.972 4060 409 3960.028" style="fill:none"/><polygon points="610.795 4060 409 3858.205 409 3960.028 508.972 4060 610.795 4060" style="fill:#999"/><polygon points="815 4060 815 4059.851 409.149 3654 409 3654 409 3755.674 713.326 4060 815 4060" style="fill:#999"/><polygon points="815 3857.618 611.382 3654 509.558 3654 815 3959.442 815 3857.618" style="fill:#999"/><polygon points="815 3654 713.205 3654 815 3755.795 815 3654" style="fill:#999"/><polygon points="815 3552.205 713.205 3654 611.382 3654 815 3450.382 815 3552.205" style="fill:none"/><polygon points="815 3348.558 509.558 3654 409.149 3654 815 3248.149 815 3348.558" style="fill:none"/><polygon points="713.326 3248 409 3552.326 409 3449.795 610.795 3248 713.326 3248" style="fill:none"/><polygon points="409 3347.972 409 3248 508.972 3248 409 3347.972" style="fill:none"/><polygon points="610.795 3248 409 3449.795 409 3347.972 508.972 3248 610.795 3248" style="fill:#fd5b78"/><polygon points="815 3248 815 3248.149 409.149 3654 409 3654 409 3552.326 713.326 3248 815 3248" style="fill:#fd5b78"/><polygon points="815 3450.382 611.382 3654 509.558 3654 815 3348.558 815 3450.382" style="fill:#fd5b78"/><polygon points="815 3654 713.205 3654 815 3552.205 815 3654" style="fill:#fd5b78"/><polygon points="408 3958.205 306.205 4060 204.382 4060 408 3856.382 408 3958.205" style="fill:none"/><polygon points="408 3754.558 102.558 4060 2.149 4060 408 3654.149 408 3754.558" style="fill:none"/><polygon points="306.326 3654 2 3958.326 2 3855.795 203.795 3654 306.326 3654" style="fill:none"/><polygon points="2 3753.972 2 3654 101.972 3654 2 3753.972" style="fill:none"/><polygon points="203.795 3654 2 3855.795 2 3753.972 101.972 3654 203.795 3654" style="fill:#fd5b78"/><polygon points="408 3654 408 3654.149 2.149 4060 2 4060 2 3958.326 306.326 3654 408 3654" style="fill:#fd5b78"/><polygon points="408 3856.382 204.382 4060 102.558 4060 408 3754.558 408 3856.382" style="fill:#fd5b78"/><polygon points="408 4060 306.205 4060 408 3958.205 408 4060" style="fill:#fd5b78"/><polygon points="1224 3349.795 1122.205 3248 1020.382 3248 1224 3451.618 1224 3349.795" style="fill:none"/><polygon points="1224 3553.442 918.558 3248 818.149 3248 1224 3653.851 1224 3553.442" style="fill:none"/><polygon points="1122.326 3654 818 3349.674 818 3452.205 1019.795 3654 1122.326 3654" style="fill:none"/><polygon points="818 3554.028 818 3654 917.972 3654 818 3554.028" style="fill:none"/><polygon points="1019.795 3654 818 3452.205 818 3554.028 917.972 3654 1019.795 3654" style="fill:#999"/><polygon points="1224 3654 1224 3653.851 818.149 3248 818 3248 818 3349.674 1122.326 3654 1224 3654" style="fill:#999"/><polygon points="1224 3451.618 1020.382 3248 918.558 3248 1224 3553.442 1224 3451.618" style="fill:#999"/><polygon points="1224 3248 1122.205 3248 1224 3349.795 1224 3248" style="fill:#999"/><polygon points="1630 3755.795 1528.205 3654 1426.382 3654 1630 3857.618 1630 3755.795" style="fill:none"/><polygon points="1630 3959.442 1324.558 3654 1224.149 3654 1630 4059.851 1630 3959.442" style="fill:none"/><polygon points="1528.326 4060 1224 3755.674 1224 3858.205 1425.795 4060 1528.326 4060" style="fill:none"/><polygon points="1224 3960.028 1224 4060 1323.972 4060 1224 3960.028" style="fill:none"/><polygon points="1425.795 4060 1224 3858.205 1224 3960.028 1323.972 4060 1425.795 4060" style="fill:#999"/><polygon points="1630 4060 1630 4059.851 1224.149 3654 1224 3654 1224 3755.674 1528.326 4060 1630 4060" style="fill:#999"/><polygon points="1630 3857.618 1426.382 3654 1324.558 3654 1630 3959.442 1630 3857.618" style="fill:#999"/><polygon points="1630 3654 1528.205 3654 1630 3755.795 1630 3654" style="fill:#999"/><polygon points="1630 3552.205 1528.205 3654 1426.382 3654 1630 3450.382 1630 3552.205" style="fill:none"/><polygon points="1630 3348.558 1324.558 3654 1224.149 3654 1630 3248.149 1630 3348.558" style="fill:none"/><polygon points="1528.326 3248 1224 3552.326 1224 3449.795 1425.795 3248 1528.326 3248" style="fill:none"/><polygon points="1224 3347.972 1224 3248 1323.972 3248 1224 3347.972" style="fill:none"/><polygon points="1425.795 3248 1224 3449.795 1224 3347.972 1323.972 3248 1425.795 3248" style="fill:#fd5b78"/><polygon points="1630 3248 1630 3248.149 1224.149 3654 1224 3654 1224 3552.326 1528.326 3248 1630 3248" style="fill:#fd5b78"/><polygon points="1630 3450.382 1426.382 3654 1324.558 3654 1630 3348.558 1630 3450.382" style="fill:#fd5b78"/><polygon points="1630 3654 1528.205 3654 1630 3552.205 1630 3654" style="fill:#fd5b78"/><polygon points="1223 3958.205 1121.205 4060 1019.382 4060 1223 3856.382 1223 3958.205" style="fill:none"/><polygon points="1223 3754.558 917.558 4060 817.149 4060 1223 3654.149 1223 3754.558" style="fill:none"/><polygon points="1121.326 3654 817 3958.326 817 3855.795 1018.795 3654 1121.326 3654" style="fill:none"/><polygon points="817 3753.972 817 3654 916.972 3654 817 3753.972" style="fill:#999"/><polygon points="1018.795 3654 817 3855.795 817 3753.972 916.972 3654 1018.795 3654" style="fill:#fd5b78"/><polygon points="1223 3654 1223 3654.149 817.149 4060 817 4060 817 3958.326 1121.326 3654 1223 3654" style="fill:#fd5b78"/><polygon points="1223 3856.382 1019.382 4060 917.558 4060 1223 3754.558 1223 3856.382" style="fill:#fd5b78"/><polygon points="1223 4060 1121.205 4060 1223 3958.205 1223 4060" style="fill:#fd5b78"/><polygon points="2037 3349.795 1935.205 3248 1833.382 3248 2037 3451.618 2037 3349.795" style="fill:none"/><polygon points="2037 3553.442 1731.558 3248 1631.149 3248 2037 3653.851 2037 3553.442" style="fill:none"/><polygon points="1935.326 3654 1631 3349.674 1631 3452.205 1832.795 3654 1935.326 3654" style="fill:none"/><polygon points="1631 3554.028 1631 3654 1730.972 3654 1631 3554.028" style="fill:none"/><polygon points="1832.795 3654 1631 3452.205 1631 3554.028 1730.972 3654 1832.795 3654" style="fill:#999"/><polygon points="2037 3654 2037 3653.851 1631.149 3248 1631 3248 1631 3349.674 1935.326 3654 2037 3654" style="fill:#999"/><polygon points="2037 3451.618 1833.382 3248 1731.558 3248 2037 3553.442 2037 3451.618" style="fill:#999"/><polygon points="2037 3248 1935.205 3248 2037 3349.795 2037 3248" style="fill:#999"/><polygon points="2443 3755.795 2341.205 3654 2239.382 3654 2443 3857.618 2443 3755.795" style="fill:none"/><polygon points="2443 3959.442 2137.558 3654 2037.149 3654 2443 4059.851 2443 3959.442" style="fill:none"/><polygon points="2341.326 4060 2037 3755.674 2037 3858.205 2238.795 4060 2341.326 4060" style="fill:none"/><polygon points="2037 3960.028 2037 4060 2136.972 4060 2037 3960.028" style="fill:none"/><polygon points="2238.795 4060 2037 3858.205 2037 3960.028 2136.972 4060 2238.795 4060" style="fill:#999"/><polygon points="2443 4060 2443 4059.851 2037.149 3654 2037 3654 2037 3755.674 2341.326 4060 2443 4060" style="fill:#999"/><polygon points="2443 3857.618 2239.382 3654 2137.558 3654 2443 3959.442 2443 3857.618" style="fill:#999"/><polygon points="2443 3654 2341.205 3654 2443 3755.795 2443 3654" style="fill:#999"/><polygon points="2443 3552.205 2341.205 3654 2239.382 3654 2443 3450.382 2443 3552.205" style="fill:none"/><polygon points="2443 3348.558 2137.558 3654 2037.149 3654 2443 3248.149 2443 3348.558" style="fill:none"/><polygon points="2341.326 3248 2037 3552.326 2037 3449.795 2238.795 3248 2341.326 3248" style="fill:none"/><polygon points="2037 3347.972 2037 3248 2136.972 3248 2037 3347.972" style="fill:none"/><polygon points="2238.795 3248 2037 3449.795 2037 3347.972 2136.972 3248 2238.795 3248" style="fill:#fd5b78"/><polygon points="2443 3248 2443 3248.149 2037.149 3654 2037 3654 2037 3552.326 2341.326 3248 2443 3248" style="fill:#fd5b78"/><polygon points="2443 3450.382 2239.382 3654 2137.558 3654 2443 3348.558 2443 3450.382" style="fill:#fd5b78"/><polygon points="2443 3654 2341.205 3654 2443 3552.205 2443 3654" style="fill:#fd5b78"/><polygon points="2036 3958.205 1934.205 4060 1832.382 4060 2036 3856.382 2036 3958.205" style="fill:none"/><polygon points="2036 3754.558 1730.558 4060 1630.149 4060 2036 3654.149 2036 3754.558" style="fill:none"/><polygon points="1934.326 3654 1630 3958.326 1630 3855.795 1831.795 3654 1934.326 3654" style="fill:none"/><polygon points="1630 3753.972 1630 3654 1729.972 3654 1630 3753.972" style="fill:none"/><polygon points="1831.795 3654 1630 3855.795 1630 3753.972 1729.972 3654 1831.795 3654" style="fill:#fd5b78"/><polygon points="2036 3654 2036 3654.149 1630.149 4060 1630 4060 1630 3958.326 1934.326 3654 2036 3654" style="fill:#fd5b78"/><polygon points="2036 3856.382 1832.382 4060 1730.558 4060 2036 3754.558 2036 3856.382" style="fill:#fd5b78"/><polygon points="2036 4060 1934.205 4060 2036 3958.205 2036 4060" style="fill:#fd5b78"/><polygon points="2850 3349.795 2748.205 3248 2646.382 3248 2850 3451.618 2850 3349.795" style="fill:none"/><polygon points="2850 3553.442 2544.558 3248 2444.149 3248 2850 3653.851 2850 3553.442" style="fill:none"/><polygon points="2748.326 3654 2444 3349.674 2444 3452.205 2645.795 3654 2748.326 3654" style="fill:none"/><polygon points="2444 3554.028 2444 3654 2543.972 3654 2444 3554.028" style="fill:none"/><polygon points="2645.795 3654 2444 3452.205 2444 3554.028 2543.972 3654 2645.795 3654" style="fill:#999"/><polygon points="2850 3654 2850 3653.851 2444.149 3248 2444 3248 2444 3349.674 2748.326 3654 2850 3654" style="fill:#999"/><polygon points="2850 3451.618 2646.382 3248 2544.558 3248 2850 3553.442 2850 3451.618" style="fill:#999"/><polygon points="2850 3248 2748.205 3248 2850 3349.795 2850 3248" style="fill:#999"/><polygon points="3256 3755.795 3154.205 3654 3052.382 3654 3256 3857.618 3256 3755.795" style="fill:none"/><polygon points="3256 3959.442 2950.558 3654 2850.149 3654 3256 4059.851 3256 3959.442" style="fill:none"/><polygon points="3154.326 4060 2850 3755.674 2850 3858.205 3051.795 4060 3154.326 4060" style="fill:none"/><polygon points="2850 3960.028 2850 4060 2949.972 4060 2850 3960.028" style="fill:none"/><polygon points="3051.795 4060 2850 3858.205 2850 3960.028 2949.972 4060 3051.795 4060" style="fill:#999"/><polygon points="3256 4060 3256 4059.851 2850.149 3654 2850 3654 2850 3755.674 3154.326 4060 3256 4060" style="fill:#999"/><polygon points="3256 3857.618 3052.382 3654 2950.558 3654 3256 3959.442 3256 3857.618" style="fill:#999"/><polygon points="3256 3654 3154.205 3654 3256 3755.795 3256 3654" style="fill:#999"/><polygon points="3256 3552.205 3154.205 3654 3052.382 3654 3256 3450.382 3256 3552.205" style="fill:none"/><polygon points="3256 3348.558 2950.558 3654 2850.149 3654 3256 3248.149 3256 3348.558" style="fill:none"/><polygon points="3154.326 3248 2850 3552.326 2850 3449.795 3051.795 3248 3154.326 3248" style="fill:none"/><polygon points="2850 3347.972 2850 3248 2949.972 3248 2850 3347.972" style="fill:none"/><polygon points="3051.795 3248 2850 3449.795 2850 3347.972 2949.972 3248 3051.795 3248" style="fill:#fd5b78"/><polygon points="3256 3248 3256 3248.149 2850.149 3654 2850 3654 2850 3552.326 3154.326 3248 3256 3248" style="fill:#fd5b78"/><polygon points="3256 3450.382 3052.382 3654 2950.558 3654 3256 3348.558 3256 3450.382" style="fill:#fd5b78"/><polygon points="3256 3654 3154.205 3654 3256 3552.205 3256 3654" style="fill:#fd5b78"/><polygon points="2849 3958.205 2747.205 4060 2645.382 4060 2849 3856.382 2849 3958.205" style="fill:none"/><polygon points="2849 3754.558 2543.558 4060 2443.149 4060 2849 3654.149 2849 3754.558" style="fill:none"/><polygon points="2747.326 3654 2443 3958.326 2443 3855.795 2644.795 3654 2747.326 3654" style="fill:none"/><polygon points="2443 3753.972 2443 3654 2542.972 3654 2443 3753.972" style="fill:#999"/><polygon points="2644.795 3654 2443 3855.795 2443 3753.972 2542.972 3654 2644.795 3654" style="fill:#fd5b78"/><polygon points="2849 3654 2849 3654.149 2443.149 4060 2443 4060 2443 3958.326 2747.326 3654 2849 3654" style="fill:#fd5b78"/><polygon points="2849 3856.382 2645.382 4060 2543.558 4060 2849 3754.558 2849 3856.382" style="fill:#fd5b78"/><polygon points="2849 4060 2747.205 4060 2849 3958.205 2849 4060" style="fill:#fd5b78"/><polygon points="409 4161.795 307.205 4060 205.382 4060 409 4263.618 409 4161.795" style="fill:none"/><polygon points="409 4365.442 103.558 4060 3.149 4060 409 4465.851 409 4365.442" style="fill:none"/><polygon points="307.326 4466 3 4161.674 3 4264.205 204.795 4466 307.326 4466" style="fill:none"/><polygon points="3 4366.028 3 4466 102.972 4466 3 4366.028" style="fill:none"/><polygon points="204.795 4466 3 4264.205 3 4366.028 102.972 4466 204.795 4466" style="fill:#999"/><polygon points="409 4466 409 4465.851 3.149 4060 3 4060 3 4161.674 307.326 4466 409 4466" style="fill:#999"/><polygon points="409 4263.618 205.382 4060 103.558 4060 409 4365.442 409 4263.618" style="fill:#999"/><polygon points="409 4060 307.205 4060 409 4161.795 409 4060" style="fill:#999"/><polygon points="815 4567.795 713.205 4466 611.382 4466 815 4669.618 815 4567.795" style="fill:none"/><polygon points="815 4771.442 509.558 4466 409.149 4466 815 4871.851 815 4771.442" style="fill:none"/><polygon points="713.326 4872 409 4567.674 409 4670.205 610.795 4872 713.326 4872" style="fill:none"/><polygon points="409 4772.028 409 4872 508.972 4872 409 4772.028" style="fill:none"/><polygon points="610.795 4872 409 4670.205 409 4772.028 508.972 4872 610.795 4872" style="fill:#999"/><polygon points="815 4872 815 4871.851 409.149 4466 409 4466 409 4567.674 713.326 4872 815 4872" style="fill:#999"/><polygon points="815 4669.618 611.382 4466 509.558 4466 815 4771.442 815 4669.618" style="fill:#999"/><polygon points="815 4466 713.205 4466 815 4567.795 815 4466" style="fill:#999"/><polygon points="815 4364.205 713.205 4466 611.382 4466 815 4262.382 815 4364.205" style="fill:none"/><polygon points="815 4160.558 509.558 4466 409.149 4466 815 4060.149 815 4160.558" style="fill:none"/><polygon points="713.326 4060 409 4364.326 409 4261.795 610.795 4060 713.326 4060" style="fill:none"/><polygon points="409 4159.972 409 4060 508.972 4060 409 4159.972" style="fill:none"/><polygon points="610.795 4060 409 4261.795 409 4159.972 508.972 4060 610.795 4060" style="fill:#fd5b78"/><polygon points="815 4060 815 4060.149 409.149 4466 409 4466 409 4364.326 713.326 4060 815 4060" style="fill:#fd5b78"/><polygon points="815 4262.382 611.382 4466 509.558 4466 815 4160.558 815 4262.382" style="fill:#fd5b78"/><polygon points="815 4466 713.205 4466 815 4364.205 815 4466" style="fill:#fd5b78"/><polygon points="408 4770.205 306.205 4872 204.382 4872 408 4668.382 408 4770.205" style="fill:none"/><polygon points="408 4566.558 102.558 4872 2.149 4872 408 4466.149 408 4566.558" style="fill:none"/><polygon points="306.326 4466 2 4770.326 2 4667.795 203.795 4466 306.326 4466" style="fill:none"/><polygon points="2 4565.972 2 4466 101.972 4466 2 4565.972" style="fill:none"/><polygon points="203.795 4466 2 4667.795 2 4565.972 101.972 4466 203.795 4466" style="fill:#fd5b78"/><polygon points="408 4466 408 4466.149 2.149 4872 2 4872 2 4770.326 306.326 4466 408 4466" style="fill:#fd5b78"/><polygon points="408 4668.382 204.382 4872 102.558 4872 408 4566.558 408 4668.382" style="fill:#fd5b78"/><polygon points="408 4872 306.205 4872 408 4770.205 408 4872" style="fill:#fd5b78"/><polygon points="1224 4161.795 1122.205 4060 1020.382 4060 1224 4263.618 1224 4161.795" style="fill:none"/><polygon points="1224 4365.442 918.558 4060 818.149 4060 1224 4465.851 1224 4365.442" style="fill:none"/><polygon points="1122.326 4466 818 4161.674 818 4264.205 1019.795 4466 1122.326 4466" style="fill:none"/><polygon points="818 4366.028 818 4466 917.972 4466 818 4366.028" style="fill:none"/><polygon points="1019.795 4466 818 4264.205 818 4366.028 917.972 4466 1019.795 4466" style="fill:#999"/><polygon points="1224 4466 1224 4465.851 818.149 4060 818 4060 818 4161.674 1122.326 4466 1224 4466" style="fill:#999"/><polygon points="1224 4263.618 1020.382 4060 918.558 4060 1224 4365.442 1224 4263.618" style="fill:#999"/><polygon points="1224 4060 1122.205 4060 1224 4161.795 1224 4060" style="fill:#999"/><polygon points="1630 4567.795 1528.205 4466 1426.382 4466 1630 4669.618 1630 4567.795" style="fill:none"/><polygon points="1630 4771.442 1324.558 4466 1224.149 4466 1630 4871.851 1630 4771.442" style="fill:none"/><polygon points="1528.326 4872 1224 4567.674 1224 4670.205 1425.795 4872 1528.326 4872" style="fill:none"/><polygon points="1224 4772.028 1224 4872 1323.972 4872 1224 4772.028" style="fill:none"/><polygon points="1425.795 4872 1224 4670.205 1224 4772.028 1323.972 4872 1425.795 4872" style="fill:#999"/><polygon points="1630 4872 1630 4871.851 1224.149 4466 1224 4466 1224 4567.674 1528.326 4872 1630 4872" style="fill:#999"/><polygon points="1630 4669.618 1426.382 4466 1324.558 4466 1630 4771.442 1630 4669.618" style="fill:#999"/><polygon points="1630 4466 1528.205 4466 1630 4567.795 1630 4466" style="fill:#999"/><polygon points="1630 4364.205 1528.205 4466 1426.382 4466 1630 4262.382 1630 4364.205" style="fill:none"/><polygon points="1630 4160.558 1324.558 4466 1224.149 4466 1630 4060.149 1630 4160.558" style="fill:none"/><polygon points="1528.326 4060 1224 4364.326 1224 4261.795 1425.795 4060 1528.326 4060" style="fill:none"/><polygon points="1224 4159.972 1224 4060 1323.972 4060 1224 4159.972" style="fill:none"/><polygon points="1425.795 4060 1224 4261.795 1224 4159.972 1323.972 4060 1425.795 4060" style="fill:#fd5b78"/><polygon points="1630 4060 1630 4060.149 1224.149 4466 1224 4466 1224 4364.326 1528.326 4060 1630 4060" style="fill:#fd5b78"/><polygon points="1630 4262.382 1426.382 4466 1324.558 4466 1630 4160.558 1630 4262.382" style="fill:#fd5b78"/><polygon points="1630 4466 1528.205 4466 1630 4364.205 1630 4466" style="fill:#fd5b78"/><polygon points="1223 4770.205 1121.205 4872 1019.382 4872 1223 4668.382 1223 4770.205" style="fill:none"/><polygon points="1223 4566.558 917.558 4872 817.149 4872 1223 4466.149 1223 4566.558" style="fill:none"/><polygon points="1121.326 4466 817 4770.326 817 4667.795 1018.795 4466 1121.326 4466" style="fill:none"/><polygon points="817 4565.972 817 4466 916.972 4466 817 4565.972" style="fill:#999"/><polygon points="1018.795 4466 817 4667.795 817 4565.972 916.972 4466 1018.795 4466" style="fill:#fd5b78"/><polygon points="1223 4466 1223 4466.149 817.149 4872 817 4872 817 4770.326 1121.326 4466 1223 4466" style="fill:#fd5b78"/><polygon points="1223 4668.382 1019.382 4872 917.558 4872 1223 4566.558 1223 4668.382" style="fill:#fd5b78"/><polygon points="1223 4872 1121.205 4872 1223 4770.205 1223 4872" style="fill:#fd5b78"/><polygon points="2037 4161.795 1935.205 4060 1833.382 4060 2037 4263.618 2037 4161.795" style="fill:none"/><polygon points="2037 4365.442 1731.558 4060 1631.149 4060 2037 4465.851 2037 4365.442" style="fill:none"/><polygon points="1935.326 4466 1631 4161.674 1631 4264.205 1832.795 4466 1935.326 4466" style="fill:none"/><polygon points="1631 4366.028 1631 4466 1730.972 4466 1631 4366.028" style="fill:none"/><polygon points="1832.795 4466 1631 4264.205 1631 4366.028 1730.972 4466 1832.795 4466" style="fill:#999"/><polygon points="2037 4466 2037 4465.851 1631.149 4060 1631 4060 1631 4161.674 1935.326 4466 2037 4466" style="fill:#999"/><polygon points="2037 4263.618 1833.382 4060 1731.558 4060 2037 4365.442 2037 4263.618" style="fill:#999"/><polygon points="2037 4060 1935.205 4060 2037 4161.795 2037 4060" style="fill:#999"/><polygon points="2443 4567.795 2341.205 4466 2239.382 4466 2443 4669.618 2443 4567.795" style="fill:none"/><polygon points="2443 4771.442 2137.558 4466 2037.149 4466 2443 4871.851 2443 4771.442" style="fill:none"/><polygon points="2341.326 4872 2037 4567.674 2037 4670.205 2238.795 4872 2341.326 4872" style="fill:none"/><polygon points="2037 4772.028 2037 4872 2136.972 4872 2037 4772.028" style="fill:none"/><polygon points="2238.795 4872 2037 4670.205 2037 4772.028 2136.972 4872 2238.795 4872" style="fill:#999"/><polygon points="2443 4872 2443 4871.851 2037.149 4466 2037 4466 2037 4567.674 2341.326 4872 2443 4872" style="fill:#999"/><polygon points="2443 4669.618 2239.382 4466 2137.558 4466 2443 4771.442 2443 4669.618" style="fill:#999"/><polygon points="2443 4466 2341.205 4466 2443 4567.795 2443 4466" style="fill:#999"/><polygon points="2443 4364.205 2341.205 4466 2239.382 4466 2443 4262.382 2443 4364.205" style="fill:none"/><polygon points="2443 4160.558 2137.558 4466 2037.149 4466 2443 4060.149 2443 4160.558" style="fill:none"/><polygon points="2341.326 4060 2037 4364.326 2037 4261.795 2238.795 4060 2341.326 4060" style="fill:none"/><polygon points="2037 4159.972 2037 4060 2136.972 4060 2037 4159.972" style="fill:none"/><polygon points="2238.795 4060 2037 4261.795 2037 4159.972 2136.972 4060 2238.795 4060" style="fill:#fd5b78"/><polygon points="2443 4060 2443 4060.149 2037.149 4466 2037 4466 2037 4364.326 2341.326 4060 2443 4060" style="fill:#fd5b78"/><polygon points="2443 4262.382 2239.382 4466 2137.558 4466 2443 4160.558 2443 4262.382" style="fill:#fd5b78"/><polygon points="2443 4466 2341.205 4466 2443 4364.205 2443 4466" style="fill:#fd5b78"/><polygon points="2036 4770.205 1934.205 4872 1832.382 4872 2036 4668.382 2036 4770.205" style="fill:none"/><polygon points="2036 4566.558 1730.558 4872 1630.149 4872 2036 4466.149 2036 4566.558" style="fill:none"/><polygon points="1934.326 4466 1630 4770.326 1630 4667.795 1831.795 4466 1934.326 4466" style="fill:none"/><polygon points="1630 4565.972 1630 4466 1729.972 4466 1630 4565.972" style="fill:none"/><polygon points="1831.795 4466 1630 4667.795 1630 4565.972 1729.972 4466 1831.795 4466" style="fill:#fd5b78"/><polygon points="2036 4466 2036 4466.149 1630.149 4872 1630 4872 1630 4770.326 1934.326 4466 2036 4466" style="fill:#fd5b78"/><polygon points="2036 4668.382 1832.382 4872 1730.558 4872 2036 4566.558 2036 4668.382" style="fill:#fd5b78"/><polygon points="2036 4872 1934.205 4872 2036 4770.205 2036 4872" style="fill:#fd5b78"/><polygon points="2850 4161.795 2748.205 4060 2646.382 4060 2850 4263.618 2850 4161.795" style="fill:none"/><polygon points="2850 4365.442 2544.558 4060 2444.149 4060 2850 4465.851 2850 4365.442" style="fill:none"/><polygon points="2748.326 4466 2444 4161.674 2444 4264.205 2645.795 4466 2748.326 4466" style="fill:none"/><polygon points="2444 4366.028 2444 4466 2543.972 4466 2444 4366.028" style="fill:none"/><polygon points="2645.795 4466 2444 4264.205 2444 4366.028 2543.972 4466 2645.795 4466" style="fill:#999"/><polygon points="2850 4466 2850 4465.851 2444.149 4060 2444 4060 2444 4161.674 2748.326 4466 2850 4466" style="fill:#999"/><polygon points="2850 4263.618 2646.382 4060 2544.558 4060 2850 4365.442 2850 4263.618" style="fill:#999"/><polygon points="2850 4060 2748.205 4060 2850 4161.795 2850 4060" style="fill:#999"/><polygon points="3256 4567.795 3154.205 4466 3052.382 4466 3256 4669.618 3256 4567.795" style="fill:none"/><polygon points="3256 4771.442 2950.558 4466 2850.149 4466 3256 4871.851 3256 4771.442" style="fill:none"/><polygon points="3154.326 4872 2850 4567.674 2850 4670.205 3051.795 4872 3154.326 4872" style="fill:none"/><polygon points="2850 4772.028 2850 4872 2949.972 4872 2850 4772.028" style="fill:none"/><polygon points="3051.795 4872 2850 4670.205 2850 4772.028 2949.972 4872 3051.795 4872" style="fill:#999"/><polygon points="3256 4872 3256 4871.851 2850.149 4466 2850 4466 2850 4567.674 3154.326 4872 3256 4872" style="fill:#999"/><polygon points="3256 4669.618 3052.382 4466 2950.558 4466 3256 4771.442 3256 4669.618" style="fill:#999"/><polygon points="3256 4466 3154.205 4466 3256 4567.795 3256 4466" style="fill:#999"/><polygon points="3256 4364.205 3154.205 4466 3052.382 4466 3256 4262.382 3256 4364.205" style="fill:none"/><polygon points="3256 4160.558 2950.558 4466 2850.149 4466 3256 4060.149 3256 4160.558" style="fill:none"/><polygon points="3154.326 4060 2850 4364.326 2850 4261.795 3051.795 4060 3154.326 4060" style="fill:none"/><polygon points="2850 4159.972 2850 4060 2949.972 4060 2850 4159.972" style="fill:none"/><polygon points="3051.795 4060 2850 4261.795 2850 4159.972 2949.972 4060 3051.795 4060" style="fill:#fd5b78"/><polygon points="3256 4060 3256 4060.149 2850.149 4466 2850 4466 2850 4364.326 3154.326 4060 3256 4060" style="fill:#fd5b78"/><polygon points="3256 4262.382 3052.382 4466 2950.558 4466 3256 4160.558 3256 4262.382" style="fill:#fd5b78"/><polygon points="3256 4466 3154.205 4466 3256 4364.205 3256 4466" style="fill:#fd5b78"/><polygon points="2849 4770.205 2747.205 4872 2645.382 4872 2849 4668.382 2849 4770.205" style="fill:none"/><polygon points="2849 4566.558 2543.558 4872 2443.149 4872 2849 4466.149 2849 4566.558" style="fill:none"/><polygon points="2747.326 4466 2443 4770.326 2443 4667.795 2644.795 4466 2747.326 4466" style="fill:none"/><polygon points="2443 4565.972 2443 4466 2542.972 4466 2443 4565.972" style="fill:#999"/><polygon points="2644.795 4466 2443 4667.795 2443 4565.972 2542.972 4466 2644.795 4466" style="fill:#fd5b78"/><polygon points="2849 4466 2849 4466.149 2443.149 4872 2443 4872 2443 4770.326 2747.326 4466 2849 4466" style="fill:#fd5b78"/><polygon points="2849 4668.382 2645.382 4872 2543.558 4872 2849 4566.558 2849 4668.382" style="fill:#fd5b78"/><polygon points="2849 4872 2747.205 4872 2849 4770.205 2849 4872" style="fill:#fd5b78"/></g></g></svg>