<svg xmlns="http://www.w3.org/2000/svg" viewBox="0 0 800 800"><g id="ac304049-167a-49d5-b6f5-27b74bc24213" data-name="Layer 2"><g id="e055313d-19e3-4ac6-9b92-acbfe240d360" data-name="Layer 1"><rect width="800" height="800" style="fill:#292929"/><polygon points="248 451.205 447.795 651 550.326 651 248 348.674 248 451.205" style="fill:#fff"/><polygon points="552.205 248 450.382 248 652 449.618 652 347.795 552.205 248" style="fill:#fff"/><polygon points="248.149 248 652 651.851 652 551.442 348.558 248 248.149 248" style="fill:#fff"/><polygon points="248 651 345.972 651 248 553.028 248 651" style="fill:#fff"/><polygon points="552.17 349.795 352.375 150 249.845 150 552.17 452.326 552.17 349.795" style="fill:#fff"/><polygon points="247.795 553 349.618 553 148 351.381 148 453.205 247.795 553" style="fill:#fff"/><polygon points="551.851 552 148 148.149 148 248.558 451.442 552 551.851 552" style="fill:#fff"/><polygon points="552.17 150 454.198 150 552.17 247.972 552.17 150" style="fill:#fff"/><rect x="248" y="248" width="304" height="304" style="fill:#fff"/></g></g></svg>