<svg xmlns="http://www.w3.org/2000/svg" viewBox="0 0 504.00004 503.70217"><g id="b997d567-98b0-4334-877c-612989a4cf61" data-name="Layer 2"><g id="b6400854-257b-477b-bb7a-5210fdaa9632" data-name="Layer 1"><polygon points="100 303.056 299.795 502.851 402.326 502.851 100 200.526 100 303.056"/><polygon points="404.205 99.851 302.382 99.851 504 301.47 504 199.646 404.205 99.851"/><polygon points="100.149 99.851 504 503.702 504 403.293 200.558 99.851 100.149 99.851"/><polygon points="100 502.851 197.972 502.851 100 404.879 100 502.851"/><polygon points="404.17 201.646 204.375 1.851 101.845 1.851 404.17 304.177 404.17 201.646" style="fill:#fd5b78"/><polygon points="99.795 404.851 201.618 404.851 0 203.233 0 305.056 99.795 404.851" style="fill:#fd5b78"/><polygon points="403.851 403.851 0 0 0 100.409 303.442 403.851 403.851 403.851" style="fill:#fd5b78"/><polygon points="404.17 1.851 306.198 1.851 404.17 99.823 404.17 1.851" style="fill:#fd5b78"/></g></g></svg>