<svg xmlns="http://www.w3.org/2000/svg" viewBox="0 0 2282.12318 503.70217"><g id="ff013796-cf89-43d6-9ea1-e30198494cfd" data-name="Layer 2"><g id="f9516bd7-efc9-4671-aef8-227b41d0a283" data-name="Layer 1"><path d="M856.40167,434.85115A239.77579,239.77579,0,0,1,775.392,420.6433a222.63069,222.63069,0,0,1-72.53483-43.86986l49.10434-58.8255q28.1644,22.93606,52.594,34.1487,24.42551,11.21673,53.591,11.21673,22.18215,0,34.1487-7.97634,12.20968-8.22561,12.21377-23.67976v-.997a33.19381,33.19381,0,0,0-2.49261-13.70933,31.135,31.135,0,0,0-9.72116-10.21969q-7.47782-4.48668-20.93789-9.22264a262.54427,262.54427,0,0,0-30.16053-9.22264q-2.49465-.74778-4.98521-1.49556A373.7385,373.7385,0,0,1,787.10723,272.084q-22.43344-7.9743-37.88761-20.43937a84.28656,84.28656,0,0,1-23.929-29.662q-8.22561-17.94675-8.2256-43.86986v-.997q0-23.67771,8.72412-43.37134a97.35858,97.35858,0,0,1,26.17236-34.1487Q768.90917,85.14264,792.591,76.913q23.42642-7.47783,51.59695-7.47782,39.87761,0,73.03335,11.71524a210.29855,210.29855,0,0,1,61.81662,34.64723l-42.87282,61.81662q-27.91923-18.69455-49.60286-27.66792-21.937-9.21857-43.37134-9.22265-20.69271,0-30.65905,8.2256-10.72024,7.98044-10.7182,20.93789v.99705q0,9.22467,3.73891,14.95563,2.99112,5.98226,10.7182,10.71821,7.723,4.48668,22.43345,9.22264,9.72117,2.99112,22.932,6.48077,6.47872,1.74687,13.70933,3.73891a361.96626,361.96626,0,0,1,48.60581,16.20194q21.43437,9.22468,36.14279,21.43641a81.37635,81.37635,0,0,1,22.43345,29.662q7.22652,16.7025,7.22856,39.88169v.997q0,25.9272-9.72117,46.36247a92.86732,92.86732,0,0,1-26.92014,34.64722q-17.94677,14.45916-42.3743,21.93494A184.29619,184.29619,0,0,1,856.40167,434.85115Z"/><path d="M1136.71972,74.91887H1414.396v73.03335H1136.71972Zm78.01856,286.89893H1414.396v73.03335H1136.71972V218.493h173.48536v73.03335h-95.4668Z"/><path d="M1714.90416,434.85115a239.7757,239.7757,0,0,1-81.00969-14.20785,222.63058,222.63058,0,0,1-72.53483-43.86986l49.10433-58.8255q28.16441,22.93606,52.594,34.1487,24.42549,11.21673,53.591,11.21673,22.18215,0,34.1487-7.97634,12.20969-8.22561,12.21377-23.67976v-.997a33.19382,33.19382,0,0,0-2.4926-13.70933,31.1351,31.1351,0,0,0-9.72117-10.21969q-7.47781-4.48668-20.93789-9.22264a262.54427,262.54427,0,0,0-30.16053-9.22264q-2.49465-.74778-4.98521-1.49556a373.7388,373.7388,0,0,1-49.10433-14.70638q-22.43346-7.9743-37.88761-20.43937a84.28647,84.28647,0,0,1-23.929-29.662q-8.22559-17.94675-8.2256-43.86986v-.997q0-23.67771,8.72412-43.37134a97.35881,97.35881,0,0,1,26.17236-34.1487q16.94769-14.453,40.62948-22.68271,23.42642-7.47783,51.59694-7.47782,39.87761,0,73.03335,11.71524a210.29872,210.29872,0,0,1,61.81663,34.64723l-42.87282,61.81662q-27.91923-18.69455-49.60286-27.66792-21.937-9.21857-43.37134-9.22265-20.69271,0-30.659,8.2256-10.72026,7.98044-10.71821,20.93789v.99705q0,9.22467,3.73891,14.95563,2.99112,5.98226,10.71821,10.71821,7.723,4.48668,22.43345,9.22264,9.72115,2.99112,22.932,6.48077,6.47874,1.74687,13.70933,3.73891a361.96642,361.96642,0,0,1,48.60582,16.20194q21.43437,9.22468,36.14278,21.43641a81.37635,81.37635,0,0,1,22.43345,29.662q7.22652,16.7025,7.22856,39.88169v.997q0,25.9272-9.72116,46.36247a92.86732,92.86732,0,0,1-26.92014,34.64722q-17.94676,14.45916-42.3743,21.93494A184.29624,184.29624,0,0,1,1714.90416,434.85115Z"/><path d="M2148.76877,434.85115a239.7757,239.7757,0,0,1-81.00969-14.20785,222.63048,222.63048,0,0,1-72.53483-43.86986l49.10433-58.8255q28.16441,22.93606,52.594,34.1487,24.4255,11.21673,53.591,11.21673,22.18215,0,34.1487-7.97634,12.20968-8.22561,12.21377-23.67976v-.997a33.19365,33.19365,0,0,0-2.49261-13.70933,31.135,31.135,0,0,0-9.72116-10.21969q-7.47782-4.48668-20.93789-9.22264a262.54427,262.54427,0,0,0-30.16053-9.22264q-2.49465-.74778-4.98521-1.49556a373.739,373.739,0,0,1-49.10434-14.70638q-22.43345-7.9743-37.88761-20.43937a84.28656,84.28656,0,0,1-23.929-29.662q-8.22559-17.94675-8.2256-43.86986v-.997q0-23.67771,8.72412-43.37134a97.35858,97.35858,0,0,1,26.17236-34.1487q16.94768-14.453,40.62948-22.68271,23.4264-7.47783,51.59694-7.47782,39.87761,0,73.03335,11.71524a210.29855,210.29855,0,0,1,61.81662,34.64723l-42.87282,61.81662q-27.91923-18.69455-49.60285-27.66792-21.937-9.21857-43.37135-9.22265-20.69271,0-30.659,8.2256-10.72025,7.98044-10.7182,20.93789v.99705q0,9.22467,3.73891,14.95563,2.99112,5.98226,10.7182,10.71821,7.723,4.48668,22.43345,9.22264,9.72117,2.99112,22.932,6.48077,6.47872,1.74687,13.70933,3.73891a361.96578,361.96578,0,0,1,48.60581,16.20194q21.43437,9.22468,36.14279,21.43641a81.37635,81.37635,0,0,1,22.43345,29.662q7.22652,16.7025,7.22856,39.88169v.997q0,25.9272-9.72116,46.36247a92.86735,92.86735,0,0,1-26.92015,34.64722q-17.94677,14.45916-42.3743,21.93494A184.29617,184.29617,0,0,1,2148.76877,434.85115Z"/><polygon points="100 303.056 299.795 502.851 402.326 502.851 100 200.526 100 303.056"/><polygon points="404.205 99.851 302.382 99.851 504 301.47 504 199.646 404.205 99.851"/><polygon points="100.149 99.851 504 503.702 504 403.293 200.558 99.851 100.149 99.851"/><polygon points="100 502.851 197.972 502.851 100 404.879 100 502.851"/><polygon points="404.17 201.646 204.375 1.851 101.845 1.851 404.17 304.177 404.17 201.646"/><polygon points="99.795 404.851 201.618 404.851 0 203.233 0 305.056 99.795 404.851"/><polygon points="403.851 403.851 0 0 0 100.409 303.442 403.851 403.851 403.851"/><polygon points="404.17 1.851 306.198 1.851 404.17 99.823 404.17 1.851"/><rect x="100.00004" y="99.85115" width="304" height="304"/></g></g></svg>